<svg width="345" height="380" viewBox="0 0 345 380" fill="none" xmlns="http://www.w3.org/2000/svg">
<path d="M163.324 185.412C162.672 184.62 162.058 184.216 161.396 183.948C160.138 183.438 158.266 183.482 156.806 184.248C152.528 186.488 153.244 193.096 158.08 194.218C163.298 195.456 166.334 189.078 163.324 185.412ZM159.764 190.766C156.878 191.854 155.902 188.19 158.198 187.286C159.09 186.926 159.89 187.258 160.614 187.466C161.858 188.216 161.356 190.166 159.764 190.766Z" fill="#111827"/>
<path d="M165.708 262.346C165.251 262.129 164.727 262.102 164.251 262.271C163.774 262.439 163.384 262.79 163.166 263.246C158.106 273.598 145.994 292.5 129.842 310.95C113.618 329.488 100.058 347.418 78.6899 359.878C77.0599 360.852 77.7239 363.4 79.6619 363.4C80.0066 363.399 80.3448 363.307 80.6419 363.132C94.9339 354.456 108.382 341.148 119.508 328.802C129.96 317.202 131.294 315.692 138.826 306.256C147.97 294.802 160.484 278.194 166.628 264.888C166.841 264.429 166.865 263.904 166.693 263.428C166.521 262.952 166.167 262.563 165.71 262.346H165.708Z" fill="#111827"/>
<path d="M93.4399 301.21C92.6179 301.804 91.7639 302.416 90.8779 303.046C91.7359 303.976 92.5399 304.974 93.2939 306.034C94.3079 305.306 95.3119 304.58 96.3079 303.856C95.3028 303.029 94.3452 302.145 93.4399 301.21Z" fill="#111827"/>
<path d="M39.128 335.704C24.55 343.446 12.748 348.188 2.16201 351.466C-0.161988 352.198 0.84401 355.856 3.32001 355.08C15.224 351.198 27.902 345.546 40.6 338.88C40.0462 337.852 39.5553 336.791 39.13 335.704H39.128Z" fill="#111827"/>
<path d="M77.6401 356.276C77.4738 356.082 77.2696 355.925 77.0402 355.813C76.8108 355.701 76.561 355.638 76.3061 355.626C61.1541 354.794 57.6461 353.85 49.9181 352.984C48.1781 352.79 46.4881 352.708 44.8141 352.536C34.5461 351.482 33.7841 351.004 24.5341 349.984C24.0306 349.923 23.5235 350.064 23.1232 350.375C22.7228 350.686 22.4615 351.143 22.3961 351.646C22.3364 352.147 22.4761 352.652 22.7852 353.051C23.0942 353.45 23.5478 353.712 24.0481 353.78C33.3041 355.09 31.1301 354.682 37.1201 355.392C49.1121 356.814 37.3941 355.998 76.1941 359.418C77.8041 359.418 78.7061 357.506 77.6381 356.276H77.6401Z" fill="#111827"/>
<path d="M92.716 344.302C91.874 344.282 90.876 344.224 89.784 344.14C88.7529 345.277 87.6414 346.338 86.458 347.316C88.966 347.614 92.398 348.094 92.636 348.094C93.1228 348.094 93.5909 347.907 93.9443 347.572C94.2977 347.237 94.5094 346.78 94.536 346.294C94.5476 346.044 94.5096 345.793 94.4244 345.557C94.3392 345.322 94.2083 345.105 94.0393 344.92C93.8702 344.735 93.6664 344.585 93.4393 344.478C93.2123 344.372 92.9665 344.311 92.716 344.3V344.302Z" fill="#111827"/>
<path d="M107.936 328.208C107.626 328.194 104.206 328.298 97.9001 327.73C97.6841 328.924 97.3981 330.11 97.0481 331.276L97.7001 331.296C105.058 331.558 106.92 331.934 107.794 331.998C108.044 332.013 108.295 331.977 108.532 331.894C108.768 331.811 108.986 331.682 109.172 331.514C110.398 330.41 109.732 328.302 107.936 328.208Z" fill="#111827"/>
<path d="M124.028 309.604C123.034 309.546 122.106 309.566 120.532 309.506C118.065 310.041 115.546 310.306 113.022 310.296C109.948 310.296 106.982 309.67 104.198 308.568C103.742 308.547 103.287 308.521 102.832 308.492C99.4099 308.276 101.522 308.322 95.7279 308.016C95.3759 307.995 95.0248 308.069 94.7119 308.232C95.4159 309.448 96.0119 310.698 96.5079 311.974C99.6819 312.356 101.29 312.03 106.336 312.436C107.218 312.508 108.108 312.674 109.08 312.728C111.29 312.846 113.368 312.706 115.476 312.752C122.694 312.9 122.636 313.394 123.918 313.394C124.405 313.385 124.871 313.188 125.217 312.845C125.563 312.502 125.765 312.039 125.779 311.551C125.793 311.064 125.619 310.59 125.293 310.227C124.967 309.865 124.514 309.642 124.028 309.604Z" fill="#111827"/>
<path d="M154.322 273.604C153.218 272.398 152.564 273.514 146.572 272.764C145.754 272.653 144.932 272.579 144.108 272.54C144.426 273.885 144.632 275.255 144.724 276.634C145.142 276.626 145.636 276.604 146.236 276.564C149.832 276.314 151.506 276.62 152.838 276.778C154.514 276.84 155.454 274.842 154.322 273.604Z" fill="#111827"/>
<path d="M239.186 254.908C238.888 247.97 238.556 235.346 238.34 222.744C237.428 173.168 238.24 174.134 237.174 173.144C237.002 172.986 236.801 172.862 236.582 172.782C236.363 172.701 236.13 172.665 235.896 172.674C235.61 172.684 216.35 173.376 192.692 174.318C193.386 170.046 194.874 162.992 195.818 158.558C198.176 157.694 227.29 147.206 227.29 147.206C227.587 147.1 227.849 146.916 228.05 146.674C228.251 146.431 228.383 146.139 228.432 145.828C228.914 142.694 231.414 126.048 230.586 122.95C230.494 122.598 230.208 121.942 229.322 121.506C221.64 117.748 124.468 122.502 115.484 124.18C114.66 124.336 113.898 124.594 113.526 125.346C112.978 126.386 112.7 127.002 122.04 152.32C122.147 152.62 122.326 152.888 122.562 153.102C122.798 153.315 123.083 153.466 123.392 153.542L153.24 161.176C154.444 164.848 156.792 172.068 157.782 175.776L103.236 178.296C102.987 178.306 102.742 178.365 102.516 178.469C102.29 178.574 102.087 178.722 101.918 178.906C101.749 179.089 101.618 179.304 101.533 179.538C101.447 179.772 101.409 180.021 101.42 180.27L104.08 252.186C105.368 251.717 106.682 251.32 108.014 250.998C107.19 230.16 105.358 184.114 105.284 182.004C109.044 181.832 220.086 177.032 234.212 176.324C234.212 176.324 235.314 249.494 235.424 253.196L226.526 253.5C226.022 253.523 225.547 253.743 225.204 254.114C224.861 254.485 224.678 254.975 224.694 255.48C224.748 256.518 225.662 257.344 226.67 257.29L237.402 256.836C237.646 256.827 237.886 256.771 238.108 256.669C238.33 256.567 238.53 256.423 238.696 256.244C238.861 256.064 238.99 255.854 239.074 255.625C239.159 255.396 239.197 255.152 239.186 254.908ZM188.844 174.472C180.034 174.826 170.75 175.212 161.684 175.606C160.784 171.686 158.03 162.982 156.72 158.88C156.618 158.555 156.434 158.261 156.186 158.028C155.937 157.794 155.633 157.628 155.302 157.546L125.33 150.002C123.41 144.934 118.922 132.954 117.41 127.718C125.746 126.74 218.16 121.968 227.234 124.794C227.296 128.704 225.736 140.174 225.138 144.288C222.754 145.154 193.67 155.512 193.648 155.52C193.369 155.626 193.12 155.799 192.924 156.025C192.728 156.25 192.59 156.521 192.524 156.812C191.566 161.152 189.53 170.08 188.844 174.472Z" fill="#111827"/>
<path d="M186.786 135.206C174.578 136.182 163.654 134.852 154.578 135.532C153.93 135.58 129.13 136.584 128.414 136.616C127.907 136.626 127.425 136.838 127.073 137.203C126.721 137.569 126.529 138.059 126.538 138.566C126.558 139.614 127.486 140.438 128.468 140.444C141.448 140.534 143.698 139.436 154.7 139.486C158.778 139.496 166.266 139.156 170.34 139.132C170.34 139.132 185.062 139.068 187.03 138.998C187.28 138.983 187.524 138.92 187.749 138.81C187.974 138.701 188.175 138.548 188.341 138.361C188.506 138.173 188.633 137.955 188.714 137.719C188.795 137.482 188.828 137.232 188.812 136.982C188.776 136.479 188.543 136.01 188.163 135.678C187.783 135.346 187.287 135.178 186.784 135.21L186.786 135.206Z" fill="#111827"/>
<path d="M219.946 134.134C213.04 134.24 199.15 134.95 197.256 135.154C196.234 135.264 195.628 135.244 195.056 135.896C193.98 137.122 194.856 139.074 196.492 139.074C204.168 139.074 213.244 137.496 219.95 137.928C220.453 137.924 220.934 137.726 221.294 137.375C221.654 137.025 221.864 136.548 221.88 136.046C221.882 135.793 221.833 135.541 221.736 135.307C221.639 135.073 221.496 134.861 221.316 134.683C221.136 134.504 220.922 134.364 220.686 134.27C220.451 134.176 220.2 134.129 219.946 134.134Z" fill="#111827"/>
<path d="M195.974 183.962C195.304 183.146 194.66 182.714 193.944 182.422C192.618 181.888 190.682 181.93 189.146 182.732C184.694 185.06 185.382 191.974 190.478 193.168C195.924 194.462 199.138 187.812 195.976 183.96L195.974 183.962Z" fill="#111827"/>
<path d="M276.76 375.454C262.964 368.82 250.104 360.34 236.566 347.654C226.692 338.408 215.858 325.314 209.608 316.5C200.61 303.746 193.98 290.804 189.512 275.11C186.132 263.264 187.396 262.496 186.054 261.454C184.708 260.41 182.766 261.536 182.974 263.212C187.784 301.782 223.736 353.032 275.092 378.864C275.351 378.991 275.635 379.057 275.924 379.058C277.916 379.058 278.556 376.356 276.758 375.454H276.76Z" fill="#111827"/>
<path d="M217.224 274.47C217.302 273.29 217.464 270.774 217.472 270.71C217.295 270.685 217.116 270.682 216.938 270.702C210.128 271.878 208.62 271.336 205.352 271.634C204.554 271.708 203.862 271.89 203.18 271.97C199.61 272.406 197.938 272.05 194.624 272.518C194.117 272.531 193.636 272.745 193.287 273.113C192.938 273.481 192.749 273.973 192.762 274.48C192.775 274.987 192.99 275.468 193.357 275.817C193.725 276.167 194.217 276.355 194.724 276.342C197.178 276.342 197.474 276.31 199.096 276.104C202.782 275.632 204.04 275.878 206.152 275.69C208.866 275.45 211.294 274.736 216.168 274.522C216.584 274.504 216.928 274.496 217.226 274.468L217.224 274.47Z" fill="#111827"/>
<path d="M216.34 287.762C216.06 287.812 215.806 287.862 215.584 287.912C213.918 288.274 210.094 288.886 206.256 289.232C201.9 289.628 202.278 289.76 201.15 289.814C200.646 289.834 200.169 290.051 199.823 290.418C199.476 290.785 199.287 291.273 199.296 291.778C199.32 292.818 200.172 293.64 201.212 293.64C205.4 293.636 209.256 292.592 215.322 291.868C215.588 291.836 215.85 291.812 216.108 291.79C216.182 290.432 216.258 289.09 216.34 287.762Z" fill="#111827"/>
<path d="M218.242 310.568C217.479 310.177 216.833 309.59 216.37 308.868C215.792 308.984 215.116 309.13 214.09 309.358C212.202 309.776 211.752 309.704 211.2 310.396C210.208 311.64 211.11 313.506 212.7 313.506C214.458 313.506 217.45 312.756 220.948 311.918C219.298 311.09 218.266 310.582 218.242 310.57V310.568Z" fill="#111827"/>
<path d="M237.994 320.86C235.499 321.38 232.99 321.831 230.47 322.212C226.336 322.828 225.74 323.062 224.522 323.204C224.016 323.253 223.55 323.499 223.224 323.889C222.898 324.279 222.738 324.781 222.78 325.288C222.826 325.791 223.069 326.255 223.456 326.579C223.843 326.904 224.343 327.061 224.846 327.018C228.012 326.814 230.488 326.27 232.846 325.748C237.076 324.808 240.444 324.272 243.238 323.764C241.948 323.042 240.258 322.098 237.996 320.862L237.994 320.86Z" fill="#111827"/>
<path d="M273.662 329.048C264.994 330.54 250.428 333.01 250.134 333.054C248.192 333.344 237.658 334.498 237.454 334.516C236.95 334.547 236.479 334.777 236.144 335.154C235.809 335.532 235.638 336.028 235.668 336.532C235.694 337.019 235.905 337.478 236.258 337.813C236.612 338.149 237.08 338.337 237.568 338.338C238.174 338.338 240.95 338.186 243.048 337.94C243.57 337.88 261.598 335.126 262.74 334.92C266.802 334.188 269.974 333.482 273.856 332.702C273.788 331.464 273.722 330.244 273.662 329.046V329.048Z" fill="#111827"/>
<path d="M275.11 350.414C275.019 349.4 274.932 348.385 274.848 347.37C265.48 349.09 251.702 350.93 250.852 350.99C250.598 351.004 250.348 351.068 250.119 351.179C249.89 351.29 249.685 351.445 249.516 351.636C248.382 352.92 249.41 354.918 251.046 354.812C255.19 354.66 260.92 353.616 263.908 353.078C267.81 352.372 271.292 351.854 275.24 351.228C275.171 350.961 275.128 350.689 275.112 350.414H275.11Z" fill="#111827"/>
<path d="M297.288 362.476C284.674 364.676 274.11 366.518 273.854 366.558C273.604 366.593 273.364 366.678 273.147 366.807C272.93 366.936 272.741 367.107 272.59 367.31C271.562 368.694 272.746 370.568 274.388 370.348C282.364 369.276 288.306 367.814 299.842 365.92C301.77 365.604 302.832 365.464 303.928 365.306C301.713 364.367 299.5 363.424 297.288 362.476Z" fill="#111827"/>
<path d="M342.148 356.632C342.071 356.134 341.799 355.686 341.393 355.387C340.987 355.088 340.479 354.962 339.98 355.036C339.694 355.082 333.382 356.182 324.76 357.684C322.555 359.327 320.346 360.965 318.134 362.598C326.128 360.996 334.012 359.602 340.524 358.788C341.025 358.716 341.476 358.449 341.781 358.045C342.085 357.641 342.217 357.133 342.148 356.632Z" fill="#111827"/>
<path d="M221.8 266.454C222.388 266.386 223.694 266.19 226.696 265.628C222.26 261.266 219.972 258.898 219.756 258.63C219.445 258.229 218.987 257.967 218.483 257.904C217.98 257.84 217.471 257.979 217.07 258.29C216.669 258.601 216.408 259.059 216.344 259.563C216.28 260.066 216.419 260.575 216.73 260.976C217.58 262.076 219.34 263.978 221.8 266.454Z" fill="#111827"/>
<path d="M343.568 342.716C341.239 342.134 338.928 341.486 336.636 340.772L336.468 344.578C338.542 345.248 340.598 345.856 342.624 346.392C342.865 346.455 343.116 346.469 343.362 346.434C343.609 346.4 343.846 346.317 344.06 346.19C344.274 346.063 344.461 345.895 344.61 345.696C344.759 345.496 344.867 345.269 344.928 345.028C345.054 344.541 344.981 344.024 344.726 343.591C344.471 343.157 344.055 342.843 343.568 342.716Z" fill="#111827"/>
<path d="M227.662 252.514L222.27 205.412C222.224 204.926 221.992 204.477 221.623 204.158C221.253 203.839 220.775 203.675 220.288 203.7C215.376 203.856 172.022 205.558 169.924 206.324C165.03 205.916 136.318 207.144 123.61 207.688C123.112 207.706 122.641 207.919 122.3 208.281C121.958 208.644 121.773 209.126 121.784 209.624C121.784 209.79 122.266 239.264 122.494 250.408C123.81 250.69 125.088 251.076 126.328 251.558L125.662 211.422C127.146 211.342 145.334 210.582 151.798 210.396C166.002 209.984 168.206 210.214 168.914 210.204C169.916 215.24 172.756 261.126 172.754 261.394C172.742 262.646 172.57 263.512 172.2 264.114C171.11 264.478 166.762 261.442 164.5 261.416C160.566 261.416 157.144 264.008 154.134 263.286C152.662 262.93 150.374 261.616 147.944 260.862C143.95 259.614 141.92 260.182 138.83 261.346C139.54 262.298 140.192 263.286 140.784 264.298C141.738 263.946 142.55 263.692 143.126 263.646C145.654 263.47 147.92 264.45 150.248 265.486C152.784 266.616 154.324 267.272 157.344 266.682C159.878 266.182 162.194 264.876 164.446 264.932C166.248 264.958 174.274 271.718 176.068 263.866C178.444 262.392 180.8 263.086 183.482 263.968C186.332 264.906 187.17 265.15 191.454 263.66C193.184 263.06 194.748 262.504 196.482 262.85C201.024 263.792 205.576 268.404 212.148 265.434C214.604 264.322 216.512 262.46 218.84 261.324C219.934 260.8 222.712 261.292 224.78 260.704C228.58 259.624 228.29 256.094 227.664 252.508L227.662 252.514ZM224.212 256.92C223.496 257.744 219.404 257.044 217.27 258.12C212.758 260.368 210.618 264.176 205.156 262.496C201.384 261.336 198.208 258.6 193.48 259.468C191.192 259.89 189.106 261.064 186.876 261.158C186.356 261.188 185.536 260.9 184.684 260.6C184.288 261.726 184.298 262 184.474 260.526C181.676 259.54 179.196 258.814 176.298 259.68C176.046 255.974 176.016 259.688 175.42 245.752C175.07 237.536 174.28 216.802 172.924 209.874C174.274 209.796 216.934 207.632 218.672 207.568C218.91 209.768 222.084 240.888 222.368 242.96C223.69 252.358 224.638 256.43 224.212 256.918V256.92Z" fill="#76B703"/>
<path d="M139.336 222.844C139.114 220.658 135.534 220.23 135.522 223.402C135.514 225.206 137.082 236.984 137.02 241.772C137.056 242.249 137.27 242.696 137.619 243.023C137.968 243.35 138.427 243.535 138.906 243.54C140 243.54 140.864 242.622 140.802 241.462C140.308 237.896 140.076 227.338 139.336 222.844Z" fill="#76B703"/>
<path d="M148.958 224.45C148.958 221.922 145.128 221.936 145.128 224.442C145.128 229.738 145.864 242.724 146.048 252.732C146.078 254.414 148.154 255.212 149.314 254.002C150.09 253.192 148.974 224.656 148.956 224.452L148.958 224.45Z" fill="#76B703"/>
<path d="M159.246 226.854C159.246 226.384 159.17 225.948 159.146 225.628C159.146 223.516 155.58 222.458 155.274 226.084C154.878 230.758 155.764 238.262 155.564 240.808C155.252 244.744 159.3 243.95 159.292 241.54C158.79 235.496 159.526 238.22 159.246 226.854Z" fill="#76B703"/>
<path d="M193.98 250.992C191.334 242.634 189.282 226.33 188.136 221.93C188.034 221.432 187.739 220.994 187.315 220.713C186.891 220.432 186.373 220.331 185.874 220.432C185.382 220.531 184.95 220.82 184.669 221.236C184.389 221.652 184.284 222.161 184.376 222.654C187.474 240.922 187.634 241.518 190.356 252.106C190.469 252.499 190.706 252.845 191.033 253.091C191.359 253.338 191.757 253.471 192.166 253.472C192.466 253.473 192.761 253.403 193.028 253.267C193.296 253.132 193.527 252.936 193.704 252.694C193.881 252.452 193.998 252.172 194.046 251.876C194.094 251.58 194.071 251.277 193.98 250.992Z" fill="#76B703"/>
<path d="M206.092 250.84C201.742 244.784 198.892 231.626 198.114 229.356C197.694 227.714 195.48 227.4 194.614 228.858C194.138 229.662 194.41 230.324 194.552 231.01C196.696 241.296 201.076 249.348 201.626 250.446C202.648 252.488 202.968 253.51 204.114 253.762C205.73 254.12 207.036 252.346 206.09 250.842L206.092 250.84Z" fill="#76B703"/>
<path d="M213.204 224.132C213.19 223.629 212.982 223.152 212.623 222.8C212.264 222.448 211.783 222.249 211.28 222.246C210.23 222.248 209.372 223.112 209.378 224.064C208.96 227.69 209.504 235.182 209.1 238.626C209.036 241.124 212.852 241.272 212.89 238.626C212.436 232.866 213.688 234.792 213.204 224.132Z" fill="#76B703"/>
<path d="M179.442 184.61C178.754 183.768 178.086 183.342 177.412 183.068C176.078 182.526 174.136 182.582 172.612 183.378C168.178 185.698 168.82 192.572 173.944 193.814C179.422 195.104 182.586 188.43 179.442 184.61Z" fill="#76B703"/>
<path fill-rule="evenodd" clip-rule="evenodd" d="M90.972 307.834C88.108 303.842 84.68 301.172 80.658 299.51C73.598 296.58 64.422 296.194 56.544 299.352C41.416 305.412 36.504 322.698 41.97 335.438C47.82 349.018 63.604 353.504 75.078 350.052C92.398 344.836 101.628 322.698 90.972 307.834ZM84.022 321.284C80.696 320.486 80.822 317.892 79.65 313.808C78.092 308.348 70.31 310 69.398 306.434C67.754 299.98 84.744 306.042 86.65 313.35C87.186 315.438 87.784 322.19 84.022 321.284Z" fill="#111827"/>
<path fill-rule="evenodd" clip-rule="evenodd" d="M134.816 261.298C129.816 255.764 123.19 252.746 115.66 253.14C100.62 253.948 89.8281 262.118 87.0621 277.438C84.8701 289.174 97.4601 306.914 111.924 307.158C128.508 307.44 138.652 296.79 141.456 281.01C142.564 274.988 140.098 267.14 134.818 261.296L134.816 261.298ZM128.226 268.836C127.366 263.21 120.416 264.278 119.942 260.612C119.108 253.976 133.406 261.394 134.378 268.912C134.664 271.058 134.564 277.912 131.352 276.712C128.512 275.652 128.874 273.046 128.226 268.838V268.836Z" fill="#111827"/>
<path d="M170.186 71.99C165.218 66.49 158.594 63.438 151.016 63.83C136.024 64.64 125.208 72.75 122.43 88.13C120.238 99.866 132.828 117.606 147.292 117.85C163.88 118.13 174.034 107.468 176.812 91.702C177.932 85.68 175.466 77.834 170.186 71.99ZM158.752 72.52C157.41 71.816 155.962 70.318 156.946 69.356C158.676 67.688 168.916 73.136 171.506 81.644C172.67 85.512 171.296 90.908 169.338 90.24C166.468 89.19 163.658 86.64 162.998 83.652C162.138 79.838 165.648 76.112 158.752 72.52Z" fill="#111827"/>
<path fill-rule="evenodd" clip-rule="evenodd" d="M129.262 59.868C128.894 55.016 126.014 48.49 121.204 44.748C117.84 42.134 113.394 40.534 107.628 40.656C99.0621 40.776 88.4281 51.868 90.2641 61.774L90.2401 61.778C92.3341 73.198 101.312 78.696 112.748 78.41C120.808 78.298 129.96 69.668 129.264 59.87V59.868H129.262ZM123.558 52.246C123.92 53.858 124.392 59.084 121.988 58.42C119.87 57.836 119.92 55.824 119.124 52.67C118.066 48.454 113.146 49.812 112.524 47.058C111.404 42.072 122.25 46.6 123.558 52.246Z" fill="#111827"/>
<path fill-rule="evenodd" clip-rule="evenodd" d="M117.08 85.766C117.04 85.5921 116.944 85.4362 116.807 85.3226C116.67 85.2091 116.498 85.1441 116.32 85.138C98.1261 84.464 99.4961 84.488 99.2181 84.672C99.2181 84.672 86.9901 92.356 85.6281 93.178C85.4481 93.2872 85.3121 93.4561 85.2438 93.6553C85.1755 93.8544 85.1791 94.0712 85.2541 94.268C85.9521 96.214 92.2301 113.016 92.2301 113.016C92.2895 113.177 92.3916 113.319 92.5255 113.426C92.6594 113.534 92.82 113.603 92.9901 113.626L111.324 116.044C111.477 116.064 111.633 116.045 111.777 115.988C111.921 115.932 112.048 115.839 112.146 115.72C114.342 113.082 119.458 107.01 121.326 104.622C121.786 104.034 121.582 105.492 117.078 85.768L117.08 85.766ZM114.192 89.82C112.812 90.818 107.51 95.114 105.818 96.602C106.588 98.798 110.548 110.406 111.258 111.762C111.938 113.54 109.352 114.528 108.664 112.782C107.504 109.84 103.882 100.966 102.944 97.35C100.142 97.162 91.7441 96.15 90.6401 95.916C89.9161 95.846 89.3481 95.154 89.4241 94.378C89.4421 94.1936 89.4963 94.0145 89.5836 93.8511C89.6709 93.6876 89.7895 93.543 89.9327 93.4254C90.0759 93.3078 90.2409 93.2196 90.4182 93.1658C90.5955 93.1121 90.7817 93.0938 90.9661 93.112C92.1581 93.076 101.666 94.102 104.048 94.484C106.514 92.672 109.42 90.448 112.426 87.652C112.567 87.5307 112.732 87.4389 112.909 87.3823C113.086 87.3256 113.273 87.3051 113.459 87.3221C113.644 87.3391 113.824 87.3931 113.988 87.4811C114.152 87.569 114.297 87.689 114.414 87.834C114.924 88.46 114.794 89.38 114.19 89.818L114.192 89.82Z" fill="#76B703"/>
<path fill-rule="evenodd" clip-rule="evenodd" d="M231.042 46.56C207.27 34.284 207.564 34.42 207.168 34.478C207.168 34.478 183.86 38.326 181.3 38.686L181.288 38.664C181.093 38.6997 180.915 38.7961 180.778 38.9394C180.641 39.0827 180.553 39.2656 180.526 39.462C179.154 50.6219 177.793 61.7832 176.444 72.946C176.422 73.1195 176.449 73.2956 176.522 73.4546C176.595 73.6136 176.711 73.7491 176.856 73.846L201.268 89.746C201.403 89.8358 201.559 89.8876 201.721 89.896C201.882 89.9045 202.043 89.8692 202.186 89.794L223.634 78.704C223.767 78.6387 223.883 78.5443 223.974 78.428C224.065 78.3116 224.129 78.1763 224.16 78.032L231.452 47.462C231.494 47.2866 231.476 47.1024 231.402 46.9382C231.328 46.7739 231.201 46.6388 231.042 46.554V46.56ZM227.436 50.904C224.61 51.602 212.62 56.314 209.156 57.488C209.06 58.948 208.86 60.074 208.632 61.364C207.57 67.384 207.768 68.734 207.582 70.4C207.106 74.372 205.846 78.234 205.498 85.192C205.478 85.3775 205.42 85.557 205.33 85.7202C205.239 85.8835 205.117 86.0271 204.971 86.1428C204.825 86.2585 204.657 86.344 204.477 86.3944C204.297 86.4447 204.109 86.4588 203.924 86.436C203.743 86.4129 203.568 86.354 203.41 86.2629C203.252 86.1717 203.113 86.0501 203.002 85.905C202.891 85.7599 202.81 85.5942 202.764 85.4176C202.718 85.2409 202.707 85.0569 202.732 84.876C203.196 82.412 203.782 79.104 204.112 73.986C204.53 67.574 204.74 70.164 205.476 63.794C205.806 61.128 205.818 59.01 206.3 56.726C198.594 52.0846 190.894 47.4326 183.2 42.77C182.891 42.572 182.67 42.2612 182.586 41.9036C182.502 41.5459 182.56 41.1695 182.748 40.854C182.843 40.694 182.968 40.5544 183.117 40.443C183.266 40.3317 183.435 40.251 183.615 40.2054C183.795 40.1599 183.983 40.1504 184.166 40.1776C184.35 40.2049 184.527 40.2682 184.686 40.364C185.806 40.936 204.686 52.038 208.362 54.464C212.722 53.292 224.704 48.828 226.652 48.228C226.828 48.1727 227.014 48.1534 227.197 48.1712C227.381 48.189 227.559 48.2435 227.721 48.3316C227.883 48.4197 228.026 48.5395 228.141 48.6838C228.256 48.8282 228.341 48.9942 228.39 49.172C228.443 49.3486 228.459 49.5339 228.44 49.7171C228.42 49.9003 228.364 50.0777 228.275 50.239C228.186 50.4004 228.066 50.5424 227.922 50.6569C227.777 50.7714 227.611 50.8561 227.434 50.906L227.436 50.904Z" fill="#76B703"/>
<path fill-rule="evenodd" clip-rule="evenodd" d="M249.948 89.402C248.386 88.774 234.378 82.69 234.378 82.69C234.092 82.55 235.276 82.332 216.638 85.82C216.462 85.8526 216.302 85.9432 216.183 86.0772C216.064 86.2113 215.993 86.3812 215.982 86.56L214.266 105.842C214.226 106.626 214.078 106.27 225.974 116.766C226.088 116.868 226.227 116.94 226.376 116.974C226.525 117.008 226.681 117.004 226.828 116.962L245.566 111.626C246.456 111.366 245.99 111.668 250.48 90.422C250.524 90.2167 250.494 90.0026 250.397 89.8165C250.3 89.6304 250.141 89.4838 249.948 89.402ZM246.556 92.796C244.748 93.462 235.34 95.722 232.474 96.308C232.088 99.088 229.532 110.5 229.016 113.192C228.962 113.463 228.829 113.712 228.634 113.907C228.439 114.102 228.19 114.236 227.92 114.289C227.649 114.343 227.368 114.316 227.113 114.21C226.858 114.105 226.64 113.926 226.486 113.696C226.046 113.04 226.238 112.946 227.234 107.582C228.052 103.176 229.056 97.778 229.514 95.986C226.952 94.314 222.582 91.646 219.642 90.246C219.401 90.1103 219.206 89.9065 219.081 89.6602C218.956 89.4139 218.907 89.1361 218.939 88.8617C218.972 88.5874 219.085 88.3288 219.264 88.1186C219.443 87.9083 219.68 87.7557 219.946 87.68C221.25 87.314 221.23 88.6 230.976 93.648C233.084 93.17 245.414 90.112 245.924 90.04C246.578 89.868 247.394 90.294 247.582 91.084C247.668 91.4466 247.608 91.8283 247.416 92.1475C247.224 92.4667 246.915 92.698 246.554 92.792L246.556 92.796Z" fill="#76B703"/>
<path fill-rule="evenodd" clip-rule="evenodd" d="M334.236 310.152C305.054 300.988 305.35 301.076 304.974 301.202C304.974 301.202 279.57 310.022 276.752 310.944C276.564 311.007 276.401 311.131 276.291 311.297C276.181 311.462 276.129 311.66 276.144 311.858C276.358 315.828 278.464 350.214 278.464 350.214C278.472 350.389 278.529 350.558 278.63 350.701C278.73 350.844 278.869 350.956 279.03 351.024L309.756 364.154C309.903 364.215 310.063 364.237 310.22 364.217C310.378 364.197 310.527 364.136 310.654 364.04L332.484 347.44C332.602 347.35 332.699 347.236 332.768 347.105C332.838 346.974 332.878 346.83 332.886 346.682L334.8 310.974C334.807 310.795 334.757 310.618 334.655 310.471C334.553 310.323 334.406 310.213 334.236 310.156V310.152ZM328.694 315.152C328.24 316.51 326.792 315.844 309.478 324.94C309.692 328.932 310.918 353.204 311.152 357.444C311.162 357.631 311.135 357.819 311.071 357.996C311.008 358.172 310.909 358.334 310.782 358.472C310.654 358.61 310.501 358.721 310.33 358.798C310.159 358.875 309.974 358.917 309.786 358.922C309.425 358.924 309.076 358.787 308.813 358.54C308.55 358.292 308.392 357.953 308.372 357.592C307.9 349.87 306.512 331.57 306.658 325.206C302.462 323.634 281.438 315.62 280.9 315.372C280.57 315.222 280.311 314.951 280.175 314.615C280.039 314.28 280.038 313.904 280.17 313.567C280.303 313.23 280.56 312.957 280.888 312.804C281.216 312.651 281.591 312.629 281.934 312.744C282.7 312.986 302.84 320.414 307.906 322.588C317.508 318.318 322.726 315.53 326.744 313.466C327.88 312.898 329.072 314.006 328.694 315.152Z" fill="#76B703"/>
<path fill-rule="evenodd" clip-rule="evenodd" d="M277.328 275.518C250.224 264.186 250.498 264.322 250.13 264.394C250.13 264.394 224.802 269.768 221.996 270.298C221.798 270.335 221.619 270.439 221.489 270.593C221.359 270.747 221.286 270.941 221.282 271.142C220.688 282.815 220.107 294.488 219.538 306.162C219.531 306.34 219.574 306.517 219.661 306.673C219.748 306.829 219.877 306.958 220.032 307.046L248.226 322.118C248.361 322.19 248.511 322.226 248.664 322.225C248.817 322.224 248.967 322.184 249.1 322.11L271.796 309.324C271.93 309.251 272.045 309.149 272.134 309.025C272.224 308.902 272.284 308.76 272.312 308.61L277.814 276.414C277.847 276.231 277.817 276.043 277.728 275.88C277.64 275.717 277.498 275.589 277.326 275.518H277.328ZM270.708 280.358C267.622 281.316 262 282.896 252.256 286.48C252.256 290.022 250.972 308.666 250.536 315.978C250.426 317.222 248.896 317.764 248.07 316.802C247.953 316.665 247.865 316.506 247.81 316.334C247.754 316.162 247.733 315.982 247.748 315.802C248.014 312.028 248.174 294.94 249.324 286.584C244.606 284.494 226.986 275.89 224.296 274.354C223.204 273.822 223.306 272.17 224.48 271.762C224.655 271.7 224.841 271.674 225.026 271.685C225.212 271.696 225.393 271.744 225.56 271.826C227.264 272.534 246.594 281.772 250.754 284.04C262.222 280.644 269.438 277.844 269.808 277.714C269.984 277.654 270.17 277.629 270.355 277.641C270.541 277.652 270.722 277.701 270.889 277.783C271.056 277.865 271.204 277.979 271.327 278.119C271.449 278.259 271.543 278.422 271.602 278.598C271.717 278.95 271.687 279.333 271.52 279.663C271.352 279.993 271.06 280.243 270.708 280.358Z" fill="#76B703"/>
<path d="M68.118 273.716C63.82 275.694 63.954 275.826 59.66 278.296C53.322 281.912 55.07 280.536 49.718 283.712C38.262 290.502 36.422 288.694 35.486 290.608C35.3448 290.897 35.2795 291.216 35.296 291.537C35.3125 291.858 35.4103 292.17 35.5804 292.442C35.7504 292.715 35.987 292.94 36.2678 293.096C36.5487 293.252 36.8647 293.334 37.186 293.334C37.81 293.334 38.452 293.03 41.862 291.556C47.324 289.196 52.604 286.898 57.282 284.028C62.556 280.782 63.87 280.366 66.568 278.934C67.106 278.648 69.258 277.44 69.796 277.156C70.2497 276.93 70.5951 276.533 70.7563 276.052C70.9176 275.571 70.8815 275.046 70.656 274.592C70.4298 274.145 70.0383 273.803 69.5645 273.64C69.0907 273.476 68.5719 273.503 68.118 273.716Z" fill="#111827"/>
<path d="M38.7341 281.556C46.0561 277.686 44.6281 278.698 49.3701 276.02C49.8159 275.774 50.1469 275.362 50.2914 274.873C50.4358 274.385 50.3822 273.859 50.1421 273.41C49.8983 272.974 49.4947 272.65 49.0164 272.505C48.5381 272.361 48.0225 272.408 47.5781 272.636C42.4861 275.154 41.9641 275.91 37.1041 278.07C36.2561 278.45 35.3101 278.764 34.3581 279.19C29.6961 281.306 28.5421 282.536 20.2341 284.626C19.9946 284.691 19.7703 284.802 19.5739 284.954C19.3775 285.106 19.213 285.295 19.0896 285.51C18.9663 285.725 18.8866 285.963 18.8551 286.209C18.8236 286.455 18.8409 286.705 18.9061 286.944C19.0117 287.347 19.2477 287.704 19.5773 287.958C19.9069 288.213 20.3115 288.351 20.7281 288.352C21.2781 288.352 21.8261 288.116 24.1621 287.282C33.7181 283.876 34.2001 283.952 38.7321 281.556H38.7341Z" fill="#111827"/>
<path d="M287.25 270.428C282.754 267.778 283.01 268.374 278.864 265.698C276.228 263.984 276.388 263.746 272.11 261.006C271.909 260.855 271.679 260.745 271.435 260.683C271.191 260.62 270.937 260.607 270.688 260.644C270.439 260.681 270.2 260.767 269.984 260.897C269.768 261.027 269.581 261.199 269.432 261.402C269.137 261.808 269.011 262.313 269.082 262.81C269.153 263.307 269.415 263.757 269.812 264.064C272.172 265.892 272.476 266.182 275.196 267.828C276.632 268.696 281.688 271.99 283.158 272.798C285.298 273.966 297.182 279.146 297.698 279.35C299.216 279.954 300.798 278.344 300.084 276.78C299.278 275.014 297.22 276.31 287.25 270.426V270.428Z" fill="#111827"/>
<path d="M316.906 266.466C314.14 266.166 312.512 266.068 308.4 264.644C304.166 263.176 305.816 264.094 301.242 262.656C298.612 261.824 298.586 261.522 295.456 260.892C294.972 260.755 294.454 260.815 294.015 261.059C293.575 261.302 293.249 261.709 293.108 262.192C292.79 263.226 293.406 264.252 294.386 264.568C299.01 266.054 297.046 265.34 299.844 266.142C304.206 267.384 303.246 267.65 308.566 268.62C308.798 268.662 312.788 269.412 314.5 269.81C315.152 269.96 316.376 270.248 316.708 270.248C317.194 270.248 317.662 270.062 318.015 269.727C318.367 269.393 318.578 268.936 318.603 268.45C318.628 267.965 318.466 267.488 318.15 267.119C317.834 266.75 317.388 266.516 316.904 266.466H316.906Z" fill="#111827"/>
<path d="M139.076 43.876C128.274 29.858 122.708 24.848 118.406 21.01C107.824 11.57 107.568 11.316 101.126 6.63999C100.927 6.48582 100.699 6.37327 100.455 6.30902C100.212 6.24477 99.9575 6.23014 99.7082 6.26599C98.0202 6.49999 97.4802 8.65599 98.8022 9.68199C107.278 16.35 112.934 20.63 119.136 27.108C128.018 36.376 132.5 39.74 141.158 52.954C142.078 54.354 144.288 53.934 144.598 52.248C144.78 51.256 144.754 51.248 139.076 43.876Z" fill="#111827"/>
<path d="M160.3 45.174C154.18 30.554 152.856 29.708 148.622 22.674C145.77 17.95 147.214 20.234 143.31 14.074C142.726 13.154 141.536 12.9 140.682 13.444C140.253 13.7095 139.946 14.1334 139.827 14.6238C139.709 15.1142 139.788 15.6317 140.048 16.064C143.764 22.396 145.958 24.774 149.162 31.092C151.254 35.208 154.234 39.386 156.676 45.444C157.476 47.406 158.072 49.45 158.582 51.032C158.71 51.4089 158.953 51.7359 159.277 51.9664C159.601 52.197 159.99 52.3193 160.388 52.316C160.691 52.3145 160.989 52.2407 161.257 52.1008C161.526 51.9609 161.757 51.7588 161.931 51.5115C162.106 51.2642 162.219 50.9787 162.261 50.6789C162.303 50.3791 162.272 50.0737 162.172 49.788C161.626 48.208 160.938 46.7 160.3 45.174Z" fill="#111827"/>
<path d="M72.7581 31.052C69.5141 29.614 70.7841 30.012 66.2941 28.352C65.8181 28.1728 65.2909 28.1867 64.825 28.3907C64.3591 28.5947 63.9913 28.9727 63.8001 29.444C63.6316 29.9092 63.6459 30.421 63.8401 30.8761C64.0342 31.3312 64.3937 31.6957 64.8461 31.896C66.1961 32.502 80.2881 37.72 89.0481 43.986C89.9081 44.602 91.0941 44.348 91.6821 43.502C91.8278 43.2939 91.9301 43.0585 91.9826 42.81C92.0352 42.5614 92.0371 42.3048 91.9882 42.0555C91.9393 41.8062 91.8405 41.5694 91.6979 41.3591C91.5553 41.1489 91.3717 40.9696 91.1581 40.832C79.7041 33.378 76.2161 32.616 72.7581 31.052Z" fill="#111827"/>
<path d="M233.128 0.607986C229.426 4.45799 223.132 12.424 220.782 16.02L218.512 19.474C216.336 22.654 215.77 23.004 216.056 24.148C216.464 25.774 218.69 26.134 219.534 24.634C220.234 23.39 220.862 22.196 221.536 21.136C224.368 16.684 234.142 5.47799 235.946 3.19999C236.286 2.82344 236.464 2.32784 236.44 1.82105C236.416 1.31426 236.194 0.837305 235.82 0.493987C235.445 0.159157 234.954 -0.0162237 234.451 0.00505989C233.948 0.0263435 233.474 0.242615 233.128 0.607986Z" fill="#111827"/>
<path d="M275.768 35.666C276.602 34.966 276.708 33.764 276.06 32.98C275.745 32.5864 275.288 32.3334 274.787 32.2764C274.286 32.2194 273.783 32.3631 273.388 32.676C265.936 38.482 256.416 46.934 249.642 54.756C249.642 54.756 241.748 64.2 240.68 65.582C240.528 65.7833 240.419 66.0132 240.358 66.2579C240.297 66.5026 240.286 66.757 240.326 67.006C240.584 68.666 242.756 69.192 243.738 67.812C252.786 54.886 266.228 43.65 275.768 35.666Z" fill="#111827"/>
<path d="M192.444 95.756C191.967 95.6035 191.449 95.6442 191.002 95.8693C190.555 96.0944 190.214 96.486 190.052 96.96C188.896 99.776 189.582 99.206 188.45 102.66C187.458 105.68 188.18 106.166 186.89 111.312C186.849 111.559 186.858 111.811 186.916 112.054C186.973 112.297 187.079 112.526 187.226 112.728C187.373 112.931 187.559 113.101 187.772 113.231C187.986 113.361 188.223 113.447 188.47 113.484C189.492 113.64 190.466 112.94 190.65 111.8C190.866 107.596 191.684 106.74 192.08 104.816C192.198 104.244 192.16 103.822 192.238 103.382C192.66 100.778 193.268 100.618 193.696 98.154C193.843 97.67 193.795 97.1474 193.561 96.6989C193.326 96.2504 192.926 95.9118 192.444 95.756Z" fill="#111827"/>
<path d="M206.126 94.364C205.336 94.498 205.008 94.994 204.79 95.256C203.824 96.408 203.66 96.66 203.018 97.868C201.88 100.016 200.962 101.132 200.35 102.344C199.858 103.36 200.098 103.308 197.948 108.964C197.516 110.102 197.036 110.852 197.572 111.808C198.386 113.268 200.59 113.054 201.078 111.322C201.96 106.962 203.018 106.206 204.1 104.014C204.35 103.5 204.504 102.95 204.704 102.534C205.83 100.124 206.716 99.692 207.816 97.702C208.112 97.166 208.462 96.742 208.336 95.954C208.297 95.7041 208.208 95.4645 208.076 95.249C207.943 95.0336 207.769 94.8466 207.564 94.6989C207.358 94.5512 207.126 94.4457 206.879 94.3886C206.633 94.3314 206.377 94.3237 206.128 94.366L206.126 94.364Z" fill="#111827"/>
</svg>
