<svg width="374" height="360" viewBox="0 0 374 360" fill="none" xmlns="http://www.w3.org/2000/svg">
<path fill-rule="evenodd" clip-rule="evenodd" d="M150.418 35.918C204.5 36.826 204.458 37.52 204.2 41.966V41.97C204.01 45.23 202.744 73.59 201.884 92.95C203.99 92.958 206.454 92.98 209.34 93.006C215.246 93.056 222.918 93.124 232.896 93.122C248.262 93.118 248.406 93.124 251.108 93.228C252.392 93.278 254.258 93.352 258.616 93.456C266.138 93.636 271.764 93.74 275.99 93.82C287.04 94.024 288.534 94.052 289.414 94.8C289.552 94.92 289.674 95.052 289.816 95.208L289.856 95.254C290.214 95.646 290.428 99.924 290.54 106.804C293.208 107.242 296.008 107.656 298.934 108.014C299.96 108.14 300.028 107.922 300.162 107.488C300.344 106.904 300.646 105.926 303.592 104.874C306.178 103.95 308.618 103.072 310.916 102.242C284.464 54.174 233.328 21.602 174.584 21.602C165.802 21.599 157.036 22.3349 148.378 23.802C149.106 28.01 149.812 32.216 150.418 35.918ZM325.442 139.214C320.96 139.525 316.47 139.677 311.978 139.67H311.976C309.414 139.692 307.088 139.714 306.414 136.99C302.456 140.47 296.138 145.81 290.472 149.47C290.404 156.311 290.324 163.153 290.232 169.994C291.526 170.436 292.75 170.874 293.86 171.27H293.864L293.866 171.272L294.444 171.478L294.52 171.506C294.866 171.63 295.024 171.686 295.044 171.654C295.06 171.628 294.982 171.542 294.84 171.384C294.384 170.88 293.266 169.644 292.468 167.304C291.038 163.11 294.428 159.04 301.682 163.094C307.888 166.562 316.572 175.48 321.382 180.644C322.326 178.004 324.638 178.258 327.184 178.538L327.896 178.614C328.622 178.688 329.352 178.766 330.082 178.85C330.24 165.494 328.681 152.173 325.442 139.214ZM289.404 221.39L289.606 210.134L290.612 210.044C296.482 209.514 303.35 208.896 311.026 208.724C312.062 208.702 312.106 208.926 312.196 209.37C312.316 209.972 312.518 210.976 315.344 212.32C318.818 213.972 322.014 215.504 324.952 216.914C312.798 262.944 280.072 300.614 237.204 319.496C230.526 308.25 228.238 305.812 224.614 309.148C224.002 309.712 223.998 309.394 223.982 308.274C223.956 306.166 223.892 301.224 219.686 293.97L218.666 292.202C213.928 283.97 208.98 275.37 203.242 276.812L200.546 270.922L200.542 270.916C197.628 264.55 194.02 256.672 189.582 246.906C190.92 247.382 192.922 247.376 195.776 247.368C197.094 247.359 198.412 247.366 199.73 247.39C201.974 247.434 203.52 247.47 204.85 247.5C207.374 247.56 209.12 247.602 213.376 247.64C212.696 249.862 212.475 252.199 212.727 254.509C212.978 256.819 213.696 259.054 214.838 261.078C215.758 262.726 216.038 263.422 215.586 264.814C212.216 275.192 229.018 281.556 233.514 270.748C233.82 270.012 234.01 269.852 234.792 269.656C246.104 266.836 249.898 256.48 247.498 247.812L261.528 247.864L265.346 260.556C266.876 265.546 268.24 265.15 279.534 261.876C281.654 261.26 284.126 260.544 287.012 259.744H287.014C290.396 258.806 293.26 258.084 295.666 257.478C302.142 255.846 305.316 255.048 306.378 253.098C307.398 251.226 306.472 248.294 304.656 242.544C304.018 240.524 303.27 238.154 302.458 235.362C301.898 233.43 301.346 231.496 300.804 229.56V229.558C298.472 221.286 298.096 219.944 295.516 219.944H295.452C294.936 219.942 294.726 219.94 289.404 221.39ZM174.584 332.618C182.011 332.62 189.429 332.095 196.782 331.046C195.124 326.512 195.938 325.5 199.212 324.428C200.166 324.116 197.884 322.786 194.146 320.61C190.908 318.724 186.578 316.202 182.314 313.154C168.494 319.876 154.55 326.496 153.234 326.496C150.314 326.496 139.584 301.778 129.4 278.32C124.84 267.812 120.386 257.556 116.796 249.888C114.998 246.048 116.682 245.304 129.656 239.56C133.252 237.968 137.716 235.992 143.214 233.458C149.11 230.742 153.944 228.46 157.926 226.582C170.756 220.528 174.706 218.662 176.744 219.914C177.65 220.472 178.176 221.646 178.938 223.346L179.102 223.712C182.092 230.362 184.822 236.41 187.316 241.91C186.636 210.206 187.972 145.276 188.756 113.852C186.926 113.788 184.818 113.706 182.396 113.612H182.394C177.234 113.412 170.636 113.154 162.198 112.898C159.034 112.802 156.342 112.748 154.052 112.7C143.042 112.476 141.368 112.442 141.484 108.93C141.772 100.13 142.124 90.988 142.454 82.912L139.52 81.726C119.69 73.716 118.066 73.058 120.71 67.36C122.97 62.49 125.222 63.1 126.07 63.33C126.298 63.39 126.424 63.424 126.424 63.32C126.424 61.86 126.326 60.406 126.204 58.896C122.62 60.446 122.1 59.088 112.976 35.23L112.666 34.418C76.0237 50.338 46.7117 79.962 31.1957 116.818C44.0697 119.268 47.1497 120.59 45.2457 125.138C44.9257 125.906 45.2257 125.802 46.2857 125.432C48.2737 124.74 52.9417 123.118 61.1937 124.598L63.2137 124.958C66.6017 125.554 70.0437 126.16 73.0837 126.97C72.7237 121.646 72.6737 117.97 73.1437 117.37L73.2537 117.228C73.3597 117.092 73.4537 116.968 73.5577 116.858C74.4697 115.9 76.2417 115.764 93.3257 114.438C98.4057 114.046 104.84 113.546 113.008 112.89C115.522 112.688 117.648 112.484 119.448 112.31C125.142 111.764 127.602 111.528 128.818 112.646C129.744 113.496 129.948 115.13 130.308 118.006L130.352 118.356C130.834 122.196 137.22 182.62 137.104 186.422L137.102 186.424C137.042 188.394 136.094 189.332 134.254 189.84C134.31 200.256 134.304 211.596 134.3 217.076V217.078V219.608L134.302 219.61C134.302 222.642 133.228 223.818 130.194 223.814C128.189 223.813 126.184 223.815 124.18 223.822H124.118C119.158 223.832 114.072 223.844 109.892 223.762C112.93 227.288 110.134 231.972 101.712 231.812V231.81C100.962 231.796 100.412 231.772 100.024 231.756C99.5117 231.734 99.2897 231.724 99.2797 231.766C99.2717 231.798 99.3917 231.86 99.5997 231.97C99.7797 232.066 100.03 232.196 100.324 232.372C102.628 233.762 104.356 236.228 103.526 238.742C101.806 243.95 93.8777 242.422 81.2217 239.984C75.4277 238.868 68.6477 237.562 61.0177 236.622C59.9917 236.496 59.9237 236.716 59.7897 237.15C59.6097 237.734 59.3057 238.712 56.3597 239.764C52.5517 241.126 49.0597 242.386 45.8677 243.54C42.4897 244.767 39.107 245.981 35.7197 247.182C61.3457 297.866 113.908 332.618 174.584 332.618ZM21.8697 206.61C30.3097 205.61 38.9857 204.972 47.2577 204.972L47.9737 204.968C50.5357 204.946 52.8617 204.924 53.5357 207.646C58.8357 202.988 68.3717 194.988 74.8977 192.16C76.9857 191.256 78.7237 190.928 80.1097 191.01C79.8737 189.926 79.7417 188.526 79.5697 186.744C79.4437 185.42 79.2977 183.884 79.0737 182.108L79.0317 181.774C78.7637 179.664 77.6117 170.594 76.3717 159.894L76.1457 159.854C75.0077 159.646 74.0777 159.466 73.3297 159.322C71.4977 158.97 70.7497 158.826 70.6837 158.978C70.6377 159.082 70.9197 159.326 71.3957 159.742C72.5917 160.782 75.0177 162.894 76.5777 166.528C78.5897 171.218 74.0677 175.602 65.5957 171.848C57.5077 168.26 49.7677 161.798 44.8537 157.696C41.5337 154.924 39.5037 153.23 39.5337 154.232C39.6937 159.448 38.0737 159.312 22.9557 158.026H22.9537L22.9197 158.022L20.2637 157.798C19.4711 164.205 19.0744 170.654 19.0757 177.11C19.0757 187.196 20.0357 197.058 21.8697 206.61ZM84.1257 194.306C84.2657 195.232 84.1037 196.264 83.6417 197.27C82.6117 199.52 81.3757 200.64 80.8717 201.096C80.7137 201.238 80.6297 201.314 80.6417 201.342C80.6597 201.376 80.8217 201.336 81.1757 201.246L81.2557 201.226L81.7497 201.104C86.4097 199.946 93.0857 198.288 98.4257 198.206C98.4317 196.42 98.4297 194.726 98.4257 193.124C96.6457 193.302 95.0457 193.472 93.5997 193.626C89.0917 194.108 86.1197 194.424 84.1277 194.306H84.1257ZM115.884 94.414C114.882 97.19 87.1657 109.766 86.6157 109.998C85.3397 110.534 83.0617 110.07 82.0137 107.988C80.4077 104.796 78.9977 102.148 77.8177 99.924C74.5757 93.828 73.0377 90.934 73.7797 88.856C74.4537 86.98 76.9897 85.77 81.8197 83.468C83.4037 82.712 85.2357 81.838 87.3317 80.784C89.3186 79.7823 91.3013 78.7723 93.2797 77.754H93.2817V77.752H93.2837H93.2857L93.2897 77.748C104.156 72.172 105.744 71.356 107.936 75.792C109.224 78.398 110.32 80.6 111.25 82.468L111.256 82.482L111.26 82.488V82.49C116.144 92.3 116.434 92.886 115.884 94.41V94.414ZM164.382 122.93C163.686 123.326 163.438 123.334 162.702 123.01C143.464 114.526 128.522 140.4 144.922 153.116C155.658 161.44 171.25 155.088 173.218 142.016C173.498 140.15 173.704 139.428 174.914 138.606C183.94 132.474 174.556 117.136 164.382 122.93ZM89.8037 286.766C90.5857 286.918 90.7797 287.07 91.1277 287.798L91.1257 287.8C100.194 306.772 128.386 296.886 124.236 276.556C121.52 263.248 105.564 257.912 95.5437 266.534C94.1137 267.764 93.4897 268.178 92.0337 268.014C81.1917 266.788 78.3097 284.544 89.8037 286.766Z" fill="#76B703"/>
<path fill-rule="evenodd" clip-rule="evenodd" d="M182.52 92.028C182 91.974 181.506 91.932 181.04 91.9C181.008 91.3002 180.823 90.7185 180.504 90.21L182.592 90.298C182.934 90.312 183.532 92.132 182.52 92.028ZM146.332 84.486L144.372 83.69C144.032 91.812 143.7 100.42 143.416 108.994C143.37 110.386 143.736 110.398 146.896 110.498H146.974L188.808 111.832L188.854 110.012C187.78 109.982 186.658 109.954 185.514 109.926H185.512C181.396 109.822 177.002 109.71 173.594 109.522C161.816 108.868 154.914 108.77 150.878 108.71C145.236 108.63 145.198 108.63 145.27 107.31C145.73 98.898 146.07 91.292 146.332 84.486ZM189.044 102.914L189.004 104.344C185.824 104.324 183.456 104.276 182.918 104.236C182.178 104.182 182.152 104 182.248 103.492L182.26 103.424C182.306 103.184 182.34 103.008 182.436 102.886C182.696 102.564 183.408 102.604 186 102.752C186.814 102.798 187.814 102.854 189.044 102.914ZM189.26 96.092C189.234 96.6064 189.214 97.1211 189.2 97.636C185.524 97.628 179.66 97.612 179.004 97.582C177.982 97.534 178.014 97.38 178.102 96.952L178.104 96.938C178.126 96.834 178.132 96.724 178.138 96.618C178.16 96.232 178.182 95.888 178.942 95.912C183.858 96.06 187.11 96.082 189.26 96.092ZM198.23 92.954C198.62 85.226 199.134 74.14 199.872 58.268L199.874 58.212L200.574 43.164C200.652 41.522 198.644 41.52 190.602 41.516C183.338 41.512 171.148 41.506 151.122 40.282L150.714 37.744C152.638 37.764 155.438 37.888 159.52 38.074C162.398 38.204 165.912 38.362 170.206 38.532C173.29 38.652 197.904 39.686 200.95 40.164L201.01 40.176C201.338 40.226 201.59 40.266 201.782 40.396C202.444 40.848 202.36 42.392 201.986 49.27V49.274C201.844 51.914 201.656 55.344 201.454 59.798C200.962 70.6124 200.508 81.4285 200.092 92.246V92.25L200.066 92.948C199.414 92.948 198.804 92.95 198.23 92.954ZM167.382 102.174H167.322C162.586 102.172 159.446 102.062 157.358 101.99C153.55 101.856 153.23 101.846 153.096 102.836C153.09 102.876 153.084 102.916 153.076 102.956C153.054 103.025 153.049 103.099 153.062 103.17C153.172 103.566 154.582 103.604 165.074 103.876L167.368 103.936C168.134 103.956 168.17 103.606 168.22 103.14L168.244 102.93C168.348 102.162 167.908 102.166 167.436 102.172H167.382V102.174ZM176.352 96.726V96.712C176.352 95.698 176.158 95.698 170.516 95.7C169.182 95.7 167.544 95.7 165.532 95.688C164.356 95.682 164.3 97.396 165.472 97.406C168.106 97.426 170.104 97.462 171.616 97.49C175.2 97.556 176.072 97.572 176.284 97.206C176.352 97.09 176.352 96.932 176.352 96.726ZM170.926 104.006C170.262 104.02 169.924 103.872 169.948 103.086V103.058C169.956 102.858 169.96 102.708 170.028 102.598C170.234 102.264 171.008 102.286 174.102 102.368C175.262 102.398 176.746 102.438 178.65 102.472C180.084 102.498 180.622 102.51 180.554 103.466C180.522 103.91 180.446 104.104 179.922 104.184C179.554 104.24 177.162 104.166 174.906 104.098C173.579 104.048 172.253 104.018 170.926 104.008V104.006ZM184.77 90.63C184.708 90.738 184.704 90.88 184.698 91.058V91.08C184.668 92.18 185.07 92.174 187.414 92.14C189.224 92.106 191.035 92.1327 192.844 92.22C193.358 92.256 193.76 92.284 193.776 91.474C193.792 90.694 193.284 90.688 192.83 90.682L192.622 90.674L191.194 90.59C186.074 90.282 185.004 90.218 184.77 90.63Z" fill="#111827"/>
<path fill-rule="evenodd" clip-rule="evenodd" d="M100.24 198.246C100.226 196.496 100.218 194.718 100.212 192.948C101 192.872 101.82 192.794 102.674 192.718L102.69 198.594C101.884 198.409 101.064 198.292 100.238 198.246H100.24ZM106.68 221.498C111.618 221.64 113.238 221.678 114.858 221.686C115.51 221.688 116.164 221.686 117.038 221.682C119.12 221.674 122.45 221.66 130.006 221.704H130.062C131.66 221.714 132.168 221.718 132.286 217.936C132.346 215.986 132.49 202.59 132.406 190.194C131.666 190.29 130.836 190.362 129.918 190.43C129.93 195.638 129.954 202.028 129.982 209.862V209.868L130.01 217.834V217.84C130.014 218.842 130.016 219.19 128.78 219.274C127.19 219.38 114.526 219.414 107.364 219.43C106.424 219.828 105.51 220.086 104.882 220.266C104.198 220.458 103.85 220.558 104.162 220.636C105.096 220.874 105.934 221.166 106.678 221.498H106.68ZM102.692 209.262V208.922C102.472 209.016 102.248 209.106 102.018 209.192C102.238 209.214 102.464 209.236 102.692 209.262Z" fill="#111827"/>
<path fill-rule="evenodd" clip-rule="evenodd" d="M171.798 222.6C175.444 220.912 175.548 220.964 177.17 224.58C185.117 242.329 193.131 260.047 201.214 277.734C200.934 277.918 200.654 278.126 200.372 278.36C199.986 278.134 199.58 277.943 199.16 277.79C194.204 267.384 186.528 250.954 174.918 224.886C174.856 224.708 174.758 224.545 174.63 224.406C173.596 223.474 169.114 226.364 124.342 246.738C122.558 247.548 121.672 247.934 121.428 248.568C121.188 249.19 121.568 250.05 122.332 251.784C150.832 316.534 152.712 321.95 154.132 321.83C154.256 321.82 154.378 321.766 154.514 321.708H154.518C158.266 320.062 168.078 315.254 178.41 310.176C179.04 310.69 179.678 311.194 180.322 311.684C168.258 317.548 156.656 323.144 154.928 323.848C152.808 324.71 152.778 324.674 151.84 322.622C134.22 284.082 125.41 264.114 121.37 254.956C120.499 252.96 119.612 250.97 118.71 248.988C118.554 248.656 118.426 248.384 118.428 248.114C118.44 246.228 124.742 244.384 171.798 222.6Z" fill="#111827"/>
<path d="M139.238 275.788C138.696 275.75 138.68 275.23 138.464 274.878C137.778 273.768 138.108 274.306 164.048 261.904C165.064 261.418 165.498 261.516 165.99 262.56C166.568 263.788 166.362 263.334 139.238 275.788Z" fill="#111827"/>
<path d="M175.566 247.98C175.684 248.856 175.73 248.396 156.92 257.146C156.184 257.488 155.956 257.124 155.706 256.558C155.018 254.996 155.298 255.77 174.036 246.998C175.348 246.384 175.09 247.68 175.568 247.98H175.566Z" fill="#111827"/>
<path d="M154.754 285.44C154.006 285.322 154.082 284.624 153.84 284.184C153.414 283.41 152.592 283.868 169.144 276.32C170.962 275.49 171.66 277.5 170.108 278.27C168.052 279.29 156.838 284.476 154.752 285.44H154.754Z" fill="#111827"/>
<path d="M171.784 268.418C171.822 269.018 171.89 268.648 158.594 274.83C157.93 275.138 157.584 275.042 157.43 274.356C157.308 273.81 156.538 273.236 157.604 272.744C161.78 270.82 165.93 268.836 170.104 266.91C170.768 266.604 171.822 267.63 171.784 268.416V268.418Z" fill="#111827"/>
<path d="M156.176 275.506C156.316 276.158 156.362 275.918 143.258 281.986C142.526 282.324 141.948 282.566 141.46 281.486C140.94 280.336 141.806 280.276 142.356 280.01C154.54 274.136 155.944 272.992 156.176 275.504V275.506Z" fill="#111827"/>
<path d="M169.66 234.476C169.61 235.2 169.806 234.766 155.142 241.882C154.524 242.182 154.308 242.022 154.08 241.42C153.404 239.64 153.56 240.466 168.416 233.574C169.482 233.08 169.406 233.968 169.66 234.476Z" fill="#111827"/>
<path d="M181.26 256.2C181.21 256.508 180.782 256.588 180.464 256.738C167.634 262.758 167.866 263.156 167.474 261.708C167.322 261.146 166.674 260.646 167.74 260.172C171.738 258.396 175.694 256.518 179.674 254.69C180.308 254.398 181.336 255.286 181.26 256.2Z" fill="#111827"/>
<path d="M147.592 253.51C147.71 254.086 147.78 253.882 133.1 260.858C132.656 261.07 132.168 261.506 131.788 260.638C131.448 259.86 131.75 259.59 132.398 259.276C147.704 251.828 146.852 251.294 147.592 253.51Z" fill="#111827"/>
<path d="M172.338 266.44C171.906 265.796 171.564 266.296 183.574 260.654C184.602 260.172 184.576 261.116 184.924 261.56C185.766 262.632 185.178 262.424 173.914 267.782C172.794 268.316 172.752 267.054 172.34 266.442L172.338 266.44Z" fill="#111827"/>
<path d="M161.362 247.022C161.388 247.534 161.43 247.152 150.46 252.602C149.754 252.954 149.512 252.7 149.23 252.112C148.618 250.836 148.706 251.218 159.818 245.83C160.532 245.484 161.43 246.21 161.362 247.022Z" fill="#111827"/>
<path d="M151.572 241.364C152.172 241.466 152.212 242.04 152.422 242.452C152.656 242.908 152.38 243.134 151.978 243.32C141.834 248.02 141.792 248.408 141.564 247.478C141.458 247.046 140.82 246.472 141.438 246.166C144.801 244.532 148.18 242.932 151.574 241.364H151.572Z" fill="#111827"/>
<path d="M139.852 248.598C139.928 249.038 140 248.912 129.556 253.59C129.132 253.78 128.644 254.072 128.338 253.354C127.87 252.254 128.25 252.724 138.312 247.568C139.51 246.954 139.526 247.914 139.852 248.6V248.598Z" fill="#111827"/>
<path d="M145.54 262.334C144.978 262.456 145.1 261.864 144.964 261.594C144.76 261.188 144.436 260.664 145.116 260.346C154.196 256.12 153.822 255.782 154.532 257.068C155.306 258.468 155.07 257.982 145.538 262.334H145.54Z" fill="#111827"/>
<path d="M143.946 262.658C143.942 263.2 144.144 263.064 135.714 266.828C135.184 267.064 134.62 267.336 134.272 266.456C133.706 265.032 134.404 265.62 142.284 261.62C143.634 260.936 143.456 262.25 143.946 262.656V262.658Z" fill="#111827"/>
<path d="M153.1 285.832C153.18 286.606 152.612 286.208 146.272 289.458C145.332 289.94 145.192 289.34 144.842 288.764C144.422 288.072 144.572 287.758 145.304 287.44C149.914 285.43 153.092 283.088 153.1 285.832Z" fill="#111827"/>
<path d="M120.55 151.914C120.546 151.868 117.996 129.32 117.758 128.022C117.438 126.274 116.438 126.942 111.67 127.472C109.534 127.712 110.204 127.512 112.136 146.032C112.966 153.986 112.706 155.572 115.046 154.998C119.192 153.98 120.968 155.992 120.55 151.914ZM116.828 153.48C113.584 154.016 114.552 153.924 112.188 129.872C111.926 128.942 112.348 128.68 113.288 128.652C118.178 128.494 115.83 128.026 118.816 151.112C119.102 153.328 119.078 153.108 116.828 153.48Z" fill="#111827"/>
<path d="M108.422 153.928C108.422 153.864 107.026 140.83 105.576 132.342C105.432 131.504 105.686 130.028 104.548 130.13C103.422 130.23 103.856 131.32 106.46 154.076C106.536 154.74 106.634 155.344 107.424 155.328C108.3 155.31 108.438 154.652 108.422 153.928Z" fill="#111827"/>
<path d="M109.444 164.064C109.206 162.27 107.138 162.668 107.304 164.118C109.154 180.324 109 180.468 110.256 180.344C111.496 180.222 111.504 179.588 109.444 164.064Z" fill="#111827"/>
<path d="M100.088 132.676C99.9119 131.458 98.4379 131.402 98.4419 132.786C98.4499 134.952 98.5479 135.24 99.5199 144.926C99.6759 146.482 101.378 146.368 101.318 144.808C101.184 141.364 100.534 135.764 100.088 132.676Z" fill="#111827"/>
<path fill-rule="evenodd" clip-rule="evenodd" d="M78.5338 160.31C80.3438 176.89 82.3358 192.278 83.5278 192.19C89.1358 191.772 90.9918 191.636 92.8458 191.476C95.5538 191.244 98.2578 190.966 112.644 189.702C117.61 189.266 121.47 188.956 124.47 188.714C134.902 187.874 134.938 187.87 134.984 186.356C135.078 183.334 129.238 127.276 128.954 124.55L128.944 124.448H128.942C128.73 122.744 128.562 121.312 128.422 120.108C127.728 114.144 127.688 113.816 126.066 113.954C80.9798 117.754 74.9518 117.49 74.4438 119.04C74.3478 119.33 74.4458 119.684 74.5178 120.138C74.5578 120.39 74.7538 122.462 75.0658 125.752L75.2418 127.606C78.2278 128.586 80.6378 129.846 81.9278 131.622L81.7318 129.91C81.5691 128.508 81.4104 127.106 81.2558 125.704C81.2158 125.25 81.1858 124.904 81.3138 124.634C82.0038 123.168 87.3138 123.874 120.896 121.262C122.342 121.15 122.36 121.364 122.688 125.636C122.868 127.95 123.138 131.452 123.776 136.736C124.634 143.906 125.362 151.091 125.96 158.288C126.106 159.98 126.22 161.3 126.314 162.214C127.814 176.68 128.996 180.166 127.902 181.168C127.52 181.518 126.862 181.566 125.84 181.672L125.842 181.674C118.72 182.416 116.466 182.614 114.476 182.788C112.872 182.928 111.436 183.054 107.762 183.438C101.194 184.124 96.7778 184.684 93.8058 185.06C87.6778 185.838 87.6778 185.838 87.5798 184.558C87.2298 179.956 86.3058 170.998 85.2658 161.436C83.0102 161.133 80.765 160.758 78.5338 160.31ZM82.6058 137.57C82.589 137.423 82.5724 137.275 82.5558 137.128C82.522 137.231 82.4867 137.334 82.4498 137.436L82.6058 137.57Z" fill="#111827"/>
<path d="M85.7897 108.048C83.9277 108.174 84.6197 108.614 75.8537 90.984C74.9177 89.102 75.7217 88.988 88.2777 82.672C105.182 74.17 104.59 73.814 106.04 76.732C114.758 94.276 115.22 93.438 111.776 95.204C107.11 97.598 90.6217 106.004 85.7897 108.046V108.048ZM112.026 92.79C111.4 91.444 107.734 84.584 104.488 78.15C103.704 76.598 103.986 77.246 91.8937 83.392C77.8137 90.548 77.5297 89.894 78.3017 91.386C86.0617 106.37 85.3697 106.77 86.8077 105.934C90.8517 103.58 111.83 93.506 112.024 92.792L112.026 92.79Z" fill="#111827"/>
<path d="M84.4057 90.51C85.5357 90.362 85.1097 90.242 89.7817 98.802C90.5177 100.152 87.8617 101.128 86.3417 101.696C85.4617 102.026 83.1877 96.566 81.5237 93.122C80.8157 91.658 83.0897 91.142 84.4037 90.512L84.4057 90.51Z" fill="#111827"/>
<path d="M107.642 89.93C108.302 91.338 106.978 92.206 106.12 90.768C99.4557 79.612 101.614 77.08 107.642 89.93Z" fill="#111827"/>
<path d="M102.895 89.546C102.983 91.238 101.681 91.102 101.339 90.426C98.2915 84.414 98.1755 84.11 98.8895 83.678C99.6255 83.234 99.9335 83.284 102.895 89.546Z" fill="#111827"/>
<path d="M226.992 184.044C215.292 184.348 205.852 194.116 206.116 205.638C206.394 217.71 216.048 227.16 227.83 226.89C239.928 226.614 249.31 216.94 249.078 204.982C248.85 193.192 238.874 183.734 226.992 184.042V184.044ZM221.222 187.288C227.714 184.958 235.172 186.092 240.718 191.134C242.17 192.454 241.564 191.822 232.91 199.708C231.658 200.85 230.5 198.316 227.372 199.044C226.112 199.338 226.648 198.89 220.586 189.032C219.978 188.042 220.21 187.652 221.22 187.29L221.222 187.288ZM233.26 205.858C233.388 212.262 223.788 212.284 223.62 206.112C223.45 199.886 233.13 199.352 233.26 205.858ZM208.826 208.028C208.236 199.488 211.16 193.622 217.05 189.45C218.728 188.26 218.192 188.722 224.322 199.256C225.24 200.834 221.698 200.85 221.504 205.622C221.458 206.744 221.624 206.23 209.8 208.688C209.174 208.818 208.874 208.704 208.828 208.028H208.826ZM233.412 223.688C222.756 226.856 212.316 220.254 209.652 211.564C209.166 209.978 209.334 210.732 221.128 208.248C221.826 208.1 221.95 208.442 222.21 208.896C226.8 216.88 238.36 211.366 234.396 202.64C234.078 201.942 234.192 201.59 234.71 201.108C243.164 193.228 242.536 192.922 243.564 194.374C251.022 204.898 245.784 220.01 233.412 223.688Z" fill="#111827"/>
<path d="M235.456 184.672C236.002 184.938 236.4 184.546 236.678 184.11C239.406 179.844 242.822 175.832 241.652 170.15C241.402 168.932 241.74 167.184 241.592 167.184C241.592 157.568 241.862 156.93 240.442 156.88C239.03 156.83 239.232 156.82 239.376 174.024C239.406 177.574 233.826 183.876 235.454 184.672H235.456Z" fill="#111827"/>
<path d="M236.7 128.37C237.63 143.104 237.094 143.438 238.51 143.396C240.49 143.336 238.988 134.474 238.654 115.63C238.64 114.89 238.45 114.244 237.61 114.256C236.32 114.274 236.7 114.598 236.7 128.372V128.37Z" fill="#111827"/>
<path d="M221.362 128.992C222.292 143.726 221.756 144.06 223.172 144.018C225.152 143.958 223.65 135.096 223.316 116.252C223.302 115.512 223.112 114.866 222.272 114.878C220.982 114.896 221.362 115.218 221.362 128.994V128.992Z" fill="#111827"/>
<path d="M228.632 131.484C229.58 143.962 229.016 144.05 230.442 144.016C232.338 143.972 231.052 142.694 230.586 120.86C230.572 120.242 230.382 119.702 229.542 119.714C228.248 119.734 228.632 119.968 228.632 131.484Z" fill="#111827"/>
<path d="M208.082 194.022C208.996 192.728 203.704 190.562 202.172 187.74C201.056 185.684 203.386 174.468 201.046 174.554C199.456 174.612 200.792 179.094 200.03 184.164C199.288 189.104 202.48 190.628 206.836 194.122C207.264 194.464 207.674 194.596 208.08 194.02L208.082 194.022Z" fill="#111827"/>
<path d="M252.934 223.466C252.702 233.96 252.76 234.294 253.792 234.372C255.044 234.464 255.256 234.022 254.66 222.016C254.588 220.556 254.298 220.526 248.788 217.472C247.4 216.702 246.454 217.864 247.916 218.846C252.168 221.7 252.976 221.536 252.932 223.466H252.934Z" fill="#111827"/>
<path d="M201.222 173.31C203.654 173.336 203.7 169.702 201.298 169.684C198.776 169.664 198.862 173.284 201.222 173.31Z" fill="#111827"/>
<path d="M253.484 235.59C250.924 235.716 250.794 239.456 253.42 239.38C256.166 239.3 255.552 235.488 253.484 235.59Z" fill="#111827"/>
<path d="M238.378 153.96C238.42 156.264 241.928 156.284 241.88 153.936C241.832 151.588 238.336 151.656 238.378 153.962V153.96Z" fill="#111827"/>
<path d="M201.988 120.222C202.548 149.43 201.302 149.302 204.378 149.278C214.682 149.202 214.666 149.506 214.522 147.962C214.526 147.922 214.576 131.462 214.348 131.462C214.348 118.136 214.504 118.126 212.762 118.326C211.092 118.186 203.27 118.47 202.956 118.452C201.814 118.392 201.964 118.98 201.988 120.22V120.222ZM205.6 120.468C209.052 120.656 211.404 120.226 211.882 120.862C212.234 148.378 212.808 147.22 210.938 147.118C207.486 146.93 205.134 147.36 204.656 146.724C204.304 119.208 203.73 120.366 205.6 120.468Z" fill="#111827"/>
<path fill-rule="evenodd" clip-rule="evenodd" d="M285.996 106.02L285.998 105.552C286.014 102.056 286.022 100.054 286.028 99.888C286.032 99.7925 286.039 99.6971 286.048 99.602C286.066 99.374 286.082 99.182 286.018 99.024C285.702 98.24 283.426 98.248 269.87 98.288C257.102 98.326 234.326 98.394 193.756 97.858C193.758 97.888 192.462 171.406 191.728 213.078L191.726 213.114L191.234 241.06V241.08C191.226 241.464 191.22 241.758 191.342 241.98C191.73 242.686 193.41 242.684 200.432 242.676H200.434C203.872 242.672 208.592 242.668 215.07 242.744L215.702 242.75C215.145 243.576 214.656 244.446 214.24 245.352C206.832 245.293 199.424 245.227 192.016 245.152C189.754 245.132 189.492 244.874 189.44 242.568C188.486 200.034 191.136 100.968 191.348 96.468C191.4 95.376 191.724 95.134 192.79 95.152C229.716 95.756 252.472 95.826 266.476 95.87C284.934 95.926 288.184 95.936 288.632 97.062C288.728 97.302 288.696 97.594 288.658 97.948L288.624 98.286C288.576 98.866 288.536 101.928 288.498 106.462C287.65 106.316 286.816 106.17 285.996 106.022V106.02ZM246.714 245.554L260.864 245.656L260.15 243.282L245.462 243.106C245.942 243.89 246.36 244.708 246.714 245.554ZM287.412 221.936L284.85 222.64C284.92 218.622 284.988 214.576 285.05 210.526C285.86 210.462 286.696 210.392 287.558 210.318L287.554 210.644V210.666C287.502 214.906 287.456 218.642 287.412 221.936ZM285.718 152.176C285.674 157.617 285.626 163.059 285.572 168.5C286.421 168.751 287.267 169.014 288.11 169.288L288.158 166.156C288.202 166.112 288.24 159.694 288.282 150.818C287.447 151.307 286.591 151.76 285.718 152.176Z" fill="#111827"/>
<path d="M304.69 251.018C304.716 253.314 304.462 252.718 286.45 257.706C267.766 262.88 268.48 263.582 267.372 259.94L259.872 235.016C258.87 231.446 258.57 232.11 273.04 228.1C279.876 226.206 286.71 224.312 293.56 222.462C296.306 221.72 296.306 221.772 297.118 224.564C304.794 250.99 304.052 248.214 304.69 251.02V251.018ZM269.986 260.084C271.03 259.732 284.788 255.858 285.848 255.562C302.622 250.882 302.75 251.396 302.336 250.034C294.556 224.41 295.408 224.184 293.902 224.624C259.47 234.658 261.56 233.41 262.062 234.852C264.192 240.976 269.084 260.042 269.986 260.084Z" fill="#111827"/>
<path d="M270.448 256.218C268.544 249.696 266.598 243.182 264.948 236.586C264.57 235.076 265.238 235.382 271.306 233.498C273.354 232.862 272.786 233.102 278.67 253.41C278.94 254.34 278.644 254.946 277.578 255.204C274.092 256.046 271.068 258.348 270.446 256.22L270.448 256.218ZM276.822 253.228C276.374 251.396 276.682 252.708 272.846 238.976C271.666 234.75 271.682 234.776 267.694 236.286C266.734 236.65 266.528 237.052 266.832 238.05C272.316 256.086 270.4 255.992 275.782 254.154C276.4 253.944 277.098 253.828 276.822 253.228Z" fill="#111827"/>
<path d="M277.634 236.656C277.296 236.584 276.264 233.334 276.398 232.764C276.464 232.484 279.6 231.6 280.048 231.736C280.298 231.812 281.186 235.124 281.076 235.576C280.992 235.922 278.242 236.784 277.632 236.654L277.634 236.656Z" fill="#111827"/>
<path d="M279.522 242.19C279.184 242.118 278.152 238.868 278.286 238.298C278.352 238.018 281.488 237.134 281.936 237.27C282.186 237.346 283.074 240.658 282.964 241.11C282.88 241.456 280.13 242.318 279.52 242.188L279.522 242.19Z" fill="#111827"/>
<path d="M281.146 247.718C280.808 247.646 279.776 244.396 279.91 243.826C279.976 243.546 283.112 242.662 283.56 242.798C283.81 242.874 284.698 246.186 284.588 246.638C284.504 246.984 281.754 247.846 281.144 247.716L281.146 247.718Z" fill="#111827"/>
<path d="M282.944 253.252C282.606 253.18 281.574 249.93 281.708 249.36C281.774 249.08 284.91 248.196 285.358 248.332C285.608 248.408 286.496 251.72 286.386 252.172C286.302 252.518 283.552 253.38 282.942 253.25L282.944 253.252Z" fill="#111827"/>
<path d="M283.498 234.868C283.16 234.796 282.128 231.546 282.262 230.976C282.328 230.696 285.464 229.812 285.912 229.948C286.162 230.024 287.05 233.336 286.94 233.788C286.856 234.134 284.106 234.996 283.496 234.866L283.498 234.868Z" fill="#111827"/>
<path d="M285.384 240.398C285.046 240.326 284.014 237.076 284.148 236.506C284.214 236.226 287.35 235.342 287.798 235.478C288.048 235.554 288.936 238.866 288.826 239.318C288.742 239.664 285.992 240.526 285.382 240.396L285.384 240.398Z" fill="#111827"/>
<path d="M287.008 245.928C286.67 245.856 285.638 242.606 285.772 242.036C285.838 241.756 288.974 240.872 289.422 241.008C289.672 241.084 290.56 244.396 290.45 244.848C290.366 245.194 287.616 246.056 287.006 245.926L287.008 245.928Z" fill="#111827"/>
<path d="M288.806 251.462C288.468 251.39 287.436 248.14 287.57 247.57C287.636 247.29 290.772 246.406 291.22 246.542C291.47 246.618 292.358 249.93 292.248 250.382C292.164 250.728 289.414 251.59 288.804 251.46L288.806 251.462Z" fill="#111827"/>
<path d="M288.806 233.324C288.468 233.252 287.436 230.002 287.57 229.432C287.636 229.152 290.772 228.268 291.22 228.404C291.47 228.48 292.358 231.792 292.248 232.244C292.164 232.59 289.414 233.452 288.804 233.322L288.806 233.324Z" fill="#111827"/>
<path d="M290.692 238.852C290.354 238.78 289.322 235.53 289.456 234.96C289.522 234.68 292.658 233.796 293.106 233.932C293.356 234.008 294.244 237.32 294.134 237.772C294.05 238.118 291.3 238.98 290.69 238.85L290.692 238.852Z" fill="#111827"/>
<path d="M292.318 244.384C291.98 244.312 290.948 241.062 291.082 240.492C291.148 240.212 294.284 239.328 294.732 239.464C294.982 239.54 295.87 242.852 295.76 243.304C295.676 243.65 292.926 244.512 292.316 244.382L292.318 244.384Z" fill="#111827"/>
<path d="M294.116 249.914C293.778 249.842 292.746 246.592 292.88 246.022C292.946 245.742 296.082 244.858 296.53 244.994C296.78 245.07 297.668 248.382 297.558 248.834C297.474 249.18 294.724 250.042 294.114 249.912L294.116 249.914Z" fill="#111827"/>
<path d="M221.64 314.55C226.492 310.324 227.372 308.792 229.042 311C231.2 313.852 232.05 315.402 247.696 341.562C248.554 342.996 249.244 344.198 248.12 344.904C246.868 345.688 246.276 344.672 243.602 340.238C225.726 310.59 227.878 312.734 226.364 313.964C220.36 318.844 214.254 324.74 202.384 328.364C199.968 329.102 200.488 328.142 211.64 352.014C214.158 357.402 214.6 358.448 213.404 359.02C211.606 359.878 211.53 358.2 204.042 342.222C202.084 338.042 200.222 333.826 198.514 329.536C196.97 325.662 199.19 327.51 204.766 324.604C193.696 317.942 173.002 306.63 172.156 298.986C171.31 291.342 186.656 301.038 187.58 300.102C189.234 298.426 175.64 281.198 175.922 274.454C176.142 269.188 181.744 272.896 185.448 277.788C187.56 280.576 187.826 283.052 191.04 281.798C192.178 281.354 193.452 281.384 194.556 280.466C196.172 279.122 198.048 279.268 199.75 280.454C200.38 280.894 200.676 280.97 201.306 280.352C207.266 274.51 213.426 287.336 217.858 295.014C222.29 302.692 222.286 307.556 221.64 314.548V314.55ZM219.804 310.612C220.404 300.122 213.828 290.784 207.096 282.388C205.942 280.948 204.016 280.2 202.426 281.846C201.22 283.094 204.872 285.146 203.398 286.22C201.858 287.342 198.64 279.022 195.31 282.324C194.368 283.26 195.65 283.678 196.092 284.252C197.246 285.752 199.13 287.362 198.254 288.186C197.396 288.994 195.984 287.334 194.142 285.038C192.414 282.884 188.9 282.902 190.276 284.996C193.538 289.962 193.716 290.122 193.042 290.606C190.978 292.086 180.872 272.202 178.068 274.198C174.346 276.846 200.914 309.11 183.926 301.106C166.938 293.102 174.336 303.288 191.278 314.072C196.194 317.2 201.328 319.956 206.366 322.88C207.242 323.388 208.038 323.38 208.992 322.926C221.646 316.916 219.506 315.744 219.8 310.612H219.804Z" fill="#111827"/>
<path d="M60.836 126.7C69.198 128.188 83.744 129.616 80.252 137.26C79.884 138.064 80.058 138.312 80.688 138.758C82.386 139.958 83.162 141.668 82.448 143.648C81.962 144.998 82.422 146.186 82.394 147.404C82.31 150.852 84.728 150.26 88.07 151.296C94.016 153.136 99.272 157.132 94.45 159.114C88.262 161.654 67.374 154.778 66.366 156.894C65.812 158.058 80.41 169.134 72.674 171.014C64.938 172.892 47.348 157.092 37.48 149.086C36.634 155.41 39.176 156.776 34.972 156.646C30.3616 156.491 25.7569 156.199 21.164 155.77C3.88798 154.196 1.98398 154.696 2.18398 152.69C2.31398 151.374 3.40198 151.424 9.36998 151.958C35.386 154.288 34.89 155.164 34.76 152.598C34.15 140.65 37.254 133.398 40.128 125.15C40.774 123.29 43.488 124.59 9.55198 117.896C4.36198 116.872 3.32598 116.632 3.62598 115.24C3.92598 113.848 5.35598 114.2 6.91198 114.5C36.202 120.156 38.55 120.554 42 121.624C44.66 122.448 43.498 123.82 41.184 129.804C47.086 127.024 52.148 125.162 60.838 126.704L60.836 126.702V126.7ZM42.998 131.278C40.028 131.884 38.626 134.038 37.614 144.536C37.512 145.59 37.774 146.336 38.554 146.99C41.786 149.696 63.44 169.058 71.262 169.19C75.234 169.258 69.49 163.466 66.672 160.666C53.448 147.52 92.754 161.372 93.964 157.006C94.876 153.714 72.754 150.932 73.436 148.516C73.664 147.708 73.968 147.856 79.654 149.206C82.06 149.778 80.974 146.494 78.296 145.586C75.618 144.678 73.458 143.898 73.938 142.79C74.418 141.682 76.574 142.906 78.372 143.48C79.062 143.7 79.894 144.766 80.448 143.56C82.414 139.298 73.492 139.12 74.026 137.28C74.532 135.538 77.712 138.256 78.472 136.706C79.442 134.726 78.202 133.118 76.374 132.498C52.518 124.39 45.258 130.818 42.998 131.278Z" fill="#111827"/>
<path d="M74.4959 204.538C81.3999 204.352 104.53 195.84 105.034 203.358C105.414 209.044 89.0279 208.514 85.0679 212.33C87.7419 212.03 108.528 209.072 109.15 214.526C109.494 217.538 103.092 218.692 100.076 218.98C69.8119 221.874 101.624 219.584 107.736 224.462C110.422 226.606 108.7 229.814 101.75 229.698C73.3699 229.23 91.4479 229.45 99.2279 234.182C101.914 235.816 102.6 238.526 99.9479 239.538C94.6859 241.546 89.5339 238.21 57.5579 234.068C58.1159 236.818 58.1419 236.886 55.6539 237.778C44.0979 241.92 23.1959 250.054 18.0739 249.804C10.4379 249.432 48.5179 237.482 54.0139 235.858C56.7339 235.054 51.2759 228.764 49.8479 214.932C49.2719 209.36 49.7539 209.052 48.4479 209.146C7.81186 212.052 4.17186 214.388 0.401855 212.974C2.93986 209.616 38.4599 206.964 49.7459 207.12C52.5299 207.158 50.9379 209.12 52.1319 211.778C81.7299 184.582 87.7839 192.418 77.1439 201.744C74.2338 204.296 74.1999 203.926 74.4959 204.54V204.538ZM107.334 214.61C99.3519 210.152 81.9859 217.148 80.7139 213.002C79.6679 209.596 98.4379 206.252 101.716 204.812C104.492 203.594 104.614 200.176 83.7839 204.782C79.4978 205.73 73.4278 207.892 72.2279 205.248C71.0258 202.604 77.6559 200.248 80.3459 194.812C69.9699 197.574 61.6039 207.154 52.7579 213.238C51.1879 214.318 55.7059 229.22 56.3079 231.026C56.8279 232.592 57.4959 231.674 61.6499 232.138C85.2799 234.786 92.0779 238.376 98.2919 237.802C99.8099 237.662 99.6919 236.936 98.6819 236.308C94.0439 233.434 90.4659 233.414 85.6439 231.816C81.1679 230.332 82.1279 227.162 86.3119 227.18C105.394 227.256 105.296 227.574 106.816 226.436C102.082 222.18 84.2499 224.65 83.8419 220.362C83.3559 215.248 102.492 219.198 107.336 214.61H107.334Z" fill="#111827"/>
<path d="M285.456 140.104C278.552 140.29 255.422 148.802 254.918 141.284C254.538 135.598 270.924 136.128 274.884 132.312C272.21 132.612 251.424 135.57 250.802 130.116C250.458 127.104 256.86 125.95 259.876 125.662C290.14 122.768 258.328 125.058 252.216 120.18C249.53 118.036 251.252 114.828 258.202 114.944C286.582 115.412 268.504 115.192 260.724 110.46C258.038 108.826 257.352 106.116 260.004 105.104C265.266 103.096 270.418 106.432 302.394 110.574C301.836 107.824 301.81 107.754 304.298 106.864C315.854 102.722 336.756 94.588 341.878 94.838C349.514 95.21 311.434 107.158 305.938 108.784C303.218 109.588 308.676 115.878 310.104 129.71C310.68 135.282 310.198 135.59 311.504 135.496C347.758 132.904 354.566 130.764 358.288 131.336C358.738 131.408 358.97 132.176 358.418 132.424C351.732 135.416 320.63 137.664 310.206 137.522C307.422 137.482 309.014 135.522 307.82 132.862C278.222 160.06 272.168 152.222 282.808 142.898C285.718 140.348 285.752 140.716 285.456 140.102V140.104ZM252.618 130.032C260.6 134.49 277.966 127.492 279.238 131.64C280.284 135.046 261.514 138.39 258.236 139.83C255.46 141.048 255.338 144.466 276.168 139.86C280.454 138.912 286.524 136.75 287.724 139.394C288.924 142.038 282.296 144.394 279.606 149.83C289.982 147.068 298.348 137.488 307.194 131.404C308.764 130.324 304.246 115.422 303.644 113.616C303.124 112.05 302.456 112.968 298.302 112.504C274.672 109.856 267.874 106.264 261.66 106.84C260.142 106.98 260.26 107.706 261.27 108.334C265.908 111.208 269.486 111.228 274.308 112.826C278.784 114.31 277.824 117.48 273.64 117.462C254.558 117.386 254.656 117.068 253.136 118.206C257.87 122.462 275.702 119.992 276.11 124.28C276.596 129.394 257.46 125.444 252.616 130.032H252.618Z" fill="#111827"/>
<path d="M301.07 175.06C297.918 171.804 295.444 169.5 294.462 166.62C292.84 161.872 299.318 158.98 322.368 184.884C323.832 182.342 322.424 180.252 325.206 180.494C348.22 182.49 369.1 188.348 373.08 190.566C374.106 191.138 374.074 191.694 372.602 191.652C370.46 191.592 365.344 190.522 356.606 188.5C346.572 186.178 336.438 184.398 326.298 182.638C323.832 182.21 327.676 183.918 317.55 206.956C316.502 209.342 317.264 207.528 349.626 222.924C355.264 225.606 353.92 227.234 349.38 225.53C337.988 221.252 327.216 215.62 316.254 210.408C313.868 209.274 313.898 209.206 314.732 206.528C282.44 207.446 277.062 210.256 272.008 207.72C269.06 206.24 270.078 202.022 279.542 200.542C281.848 200.182 284.148 199.81 286.45 199.442C284.686 197.906 269.776 198.946 265.714 196.156C263.066 194.336 264.174 191.33 269.974 190.584C278.07 189.544 283.828 190.892 286.798 189.792C279.15 188.126 264.352 186.53 265.36 181.902C266.862 175.002 296.832 185.038 287.56 180.806C279.26 177.018 276.076 176.796 272.758 174.774C269.704 172.912 269.362 169.652 273.968 168.826C281.376 167.498 299.924 176.93 301.07 175.056V175.062V175.06ZM289.954 190.26C289.118 194.498 271.642 190.226 266.49 194C267.886 195.286 267.83 194.958 286.816 196.796C290.974 197.198 291.63 200.446 287.014 201.474C281.958 202.602 278.488 202.246 273.592 204.638C272.526 205.158 272.322 205.87 273.828 206.166C280.146 207.402 286.332 204.482 310.854 204.208C315.03 204.162 315.612 205.134 316.282 203.636C317.06 201.896 323.05 187.524 321.596 186.292C313.42 179.368 306.02 168.97 295.996 165.188C298.094 170.784 304.528 173.804 303.022 176.386C301.516 178.966 295.936 176.204 291.566 174.766C271.262 168.082 271.126 171.53 273.72 172.998C276.838 174.762 295.182 179.952 293.792 183.252C292.094 187.282 275.582 178.526 267.154 182.182C271.494 187.212 290.946 185.236 289.954 190.262V190.26Z" fill="#111827"/>
<path d="M125.478 54.224C131.748 49.584 138.79 47.41 146.68 46.734C148.39 46.588 147.492 47.98 143.084 21.81C139.768 2.112 139.892 2.658 139.962 1.956C140.098 0.575996 141.726 0.415997 142.034 1.69C143.944 9.57 148.378 35.574 149.694 44.842C150.188 48.322 150.232 48.358 146.86 48.858C123.946 52.238 125.72 60.984 123.442 55.778C121.524 51.394 121.304 50.766 106.67 12.984C105.37 9.63 105.07 8.952 106.166 8.56C107.38 8.126 107.444 8.66399 110.892 17.412C125.392 54.216 124.906 53.212 125.478 54.224Z" fill="#111827"/>
<path d="M124.416 73.006C122.03 72.012 121.146 70.756 122.922 67.668C124.952 64.14 123.75 64.348 139.12 70.658C139.658 70.878 140.64 70.9 140.3 71.86C139.942 72.872 139.06 72.604 138.346 72.292C129.33 68.342 129.514 67.724 128.874 69.394C127.584 72.77 127.534 72.748 130.918 74.132C169.114 89.75 172.478 91.856 173.358 89.462C174.296 86.91 169.694 85.82 166.962 84.55C165.578 83.908 164.752 83.996 165.33 82.338C165.552 81.7 169.696 83.198 174.868 86.334C175.962 86.998 177.642 88.94 178.28 90.186C179.294 92.17 178.9 92.8 177.458 92.892C176.268 92.968 174.276 92.582 171.738 91.866C159.092 88.294 132.864 76.528 124.416 73.006ZM125.584 71.996C126.642 72.356 126.282 71.458 126.464 71.09C126.878 70.256 127.238 69.396 127.594 68.536C127.698 68.282 128 68.048 127.624 67.69C126.576 66.694 125.076 66.916 124.482 68.244C123.506 70.422 123.294 71.218 125.586 71.996H125.584Z" fill="#111827"/>
<path d="M156.627 78.97C157.871 80.21 159.211 81.356 160.535 82.514C162.451 84.194 164.407 82.276 159.769 74.454C158.043 71.542 144.275 51.18 146.071 50.054C146.711 49.65 147.091 50.204 147.369 50.682C158.767 70.234 157.945 67.37 161.561 73.656C167.809 84.518 162.173 86.402 159.509 84.206C153.195 79.002 150.617 75.706 142.221 73.072C138.527 71.914 147.269 69.648 156.625 78.968L156.627 78.97Z" fill="#111827"/>
<path d="M131.082 65.988C127.858 65.62 128.746 63.958 128.188 57.252C128.082 55.97 129.91 54.414 130.066 56.004C130.39 59.32 130.738 62.632 131.082 65.988Z" fill="#111827"/>
<path d="M246.166 252.85C245.916 259.998 241.256 265.866 234.28 267.604C232.868 267.956 232.136 268.556 231.56 269.93C228.09 278.224 215.056 273.288 217.596 265.468C218.328 263.218 217.684 261.842 216.682 260.05C212.828 253.156 215.074 244.154 221.572 239.78C232.486 232.432 246.576 241.108 246.166 252.852V252.85ZM230.286 266.28C237.472 266.496 243.784 260.536 243.996 253.34C244.228 245.472 238.548 239.216 230.904 238.92C223.67 238.64 217.156 244.61 216.894 251.754C216.606 259.61 222.542 266.048 230.286 266.28ZM224.702 272.038C228.594 272.034 230.806 268.226 229.13 268.104C221.718 267.562 220.256 262.854 219.592 265.338C218.722 268.582 221.364 272.042 224.702 272.038Z" fill="#111827"/>
<path d="M230.392 262.68C217.05 262.418 217.406 242.28 230.744 242.634C236.332 242.782 240.77 247.418 240.622 252.948C240.474 258.478 235.82 262.788 230.394 262.682L230.392 262.68Z" fill="#111827"/>
<path d="M109.868 295.582C102.816 296.764 96.1358 293.374 93.0358 286.89C92.4098 285.578 91.6738 284.978 90.2098 284.69C81.3858 282.954 83.6198 269.194 91.7918 270.118C94.1438 270.384 95.3618 269.478 96.9178 268.138C102.902 262.984 112.172 263.384 117.756 268.874C127.138 278.096 121.456 293.638 109.866 295.582H109.868ZM93.5318 282.706C94.7598 289.792 101.86 294.79 108.95 293.556C116.708 292.206 121.698 285.392 120.46 277.846C119.288 270.702 112.14 265.51 105.084 266.682C97.3298 267.97 92.2078 275.074 93.5318 282.706ZM86.7758 278.388C87.5598 282.2 91.7338 283.612 91.5178 281.946C90.5638 274.574 94.8858 272.2 92.3218 272.044C88.9678 271.84 86.1038 275.12 86.7758 278.39V278.388Z" fill="#111827"/>
<path d="M97.0878 282.092C94.6778 268.97 114.474 265.29 116.796 278.428C117.768 283.932 114.114 289.21 108.67 290.166C103.226 291.122 98.0698 287.434 97.0878 282.09V282.092Z" fill="#111827"/>
<path d="M143.418 129.322C147.994 123.826 155.268 122.048 161.848 124.948C163.18 125.536 164.128 125.508 165.422 124.774C173.25 120.344 180.516 132.228 173.722 136.856C171.766 138.188 171.43 139.67 171.124 141.7C169.948 149.51 162.652 155.248 154.842 154.724C141.716 153.844 135.894 138.354 143.416 129.324H143.418V129.322ZM164.196 128.438C158.65 123.866 150.008 124.702 145.432 130.262C140.428 136.342 141.084 144.762 146.942 149.678C152.488 154.332 161.292 153.608 165.88 148.122C170.924 142.09 170.174 133.368 164.196 128.442V128.438ZM172.132 127.312C169.052 124.932 164.974 126.582 166.222 127.706C171.748 132.68 170.02 137.29 172.064 135.738C174.74 133.706 174.772 129.354 172.132 127.312Z" fill="#111827"/>
<path d="M161.898 131.22C172.28 139.604 159.664 155.3 149.338 146.848C145.014 143.308 144.346 136.924 147.85 132.648C151.352 128.372 157.674 127.812 161.898 131.222V131.22Z" fill="#111827"/>
</svg>
