<svg width="400" height="400" viewBox="0 0 400 400" fill="none" xmlns="http://www.w3.org/2000/svg">
<path d="M263.342 179.262C263.018 163.544 263.542 147.824 263.31 132.106C262.815 97.878 262.328 63.6473 261.848 29.414C261.76 23.002 261.11 15.52 255.728 12.038C252.466 9.92598 248.314 9.93598 244.43 10.038C219.568 10.69 194.774 9.60998 169.942 11.004C160.342 11.542 152.76 14.56 152.408 25.186C151.696 46.656 152.828 185.674 153.408 197.324C153.608 201.508 152.256 218.724 156.046 222.784C158.372 225.274 183.7 223.696 185.262 223.152C187.958 222.214 195.71 205.17 203.45 197.472C196.396 197.846 169.332 199.872 167.85 196.416C166.368 192.96 166.034 44.494 165.25 33.782C193.097 34.27 220.945 34.034 248.794 33.074C250.04 87.194 247.874 131.436 248.878 166.356C249.078 173.51 251.224 186.63 247.068 192.886C244.796 196.306 240.268 196.086 236.204 196.052C232.98 196.032 218.748 197.14 218.062 196.98C220.062 197.446 220.7 199.952 220.662 201.994C220.562 208.748 217.37 215.008 214.614 221.174C213.042 224.692 215.458 224.446 218.202 224.43C220.946 224.414 241.246 224.076 248.616 223.31C254.706 222.678 259.462 223.558 261.592 217.254C265.362 206.108 263.582 190.94 263.342 179.262Z" fill="#76B703"/>
<path d="M207.21 114.572C206.235 113.987 205.075 113.791 203.963 114.025C202.85 114.259 201.867 114.904 201.21 115.832C196.952 120.998 198.434 129.394 199.368 135.356C199.49 136.132 200.74 135.936 200.724 135.172C200.453 130.96 200.681 126.73 201.404 122.572C201.77 120.932 202.204 118.288 203.632 117.2C209.182 112.982 208.728 135.8 206.466 134.334C206.19 134.154 206.284 123.334 206.302 120.978C206.293 120.677 206.177 120.39 205.976 120.166C205.774 119.943 205.5 119.798 205.202 119.757C204.904 119.717 204.601 119.783 204.347 119.945C204.094 120.106 203.905 120.353 203.816 120.64C203.02 124.552 202.897 128.571 203.452 132.524C203.664 134.544 203.938 137.564 206.582 137.658C209.582 137.764 210.148 134.36 210.47 132.096C210.95 128.69 210.925 125.232 210.396 121.834C210.022 119.374 209.5 116.096 207.21 114.572Z" fill="#76B703"/>
<path d="M215.932 142.848C219.692 137.022 219.422 124.706 218.39 117.916C217.33 110.934 212.372 101.59 203.88 102.916C189.702 105.116 186.904 132.546 196.28 143.16C196.392 143.272 196.538 143.344 196.695 143.364C196.852 143.385 197.012 143.353 197.149 143.273C197.286 143.193 197.392 143.07 197.452 142.924C197.512 142.777 197.522 142.615 197.48 142.462C196.568 139.194 195.01 136.262 194.314 132.892C192.282 123.074 194.346 108.172 203.634 105.77C211.986 103.61 215.508 115.05 216.022 121.088C216.927 128.108 216.09 135.243 213.584 141.862C213 143.268 215.172 144.026 215.932 142.848Z" fill="#76B703"/>
<path d="M190 144.378C190.354 145.12 191.4 144.578 191.25 143.852C188.202 128.696 190.408 128.052 189.878 121.748C189.808 120.904 188.52 120.312 188.09 121.262C186.779 125.028 186.405 129.057 187 133C187.298 136.944 188.315 140.8 190 144.378Z" fill="#76B703"/>
<path d="M193.096 103.154C190.644 106.405 189.098 110.248 188.616 114.292C188.506 115.138 189.672 115.532 189.934 114.656C191.485 109.411 194.545 104.739 198.734 101.222C200.208 100.253 201.591 99.1525 202.866 97.934C203.308 97.41 203.066 96.362 202.254 96.458C198.6 96.884 195.234 100.372 193.096 103.154Z" fill="#76B703"/>
<path d="M209.156 97.26C209.054 97.2745 208.958 97.3188 208.88 97.3874C208.803 97.456 208.747 97.5459 208.72 97.6458C208.693 97.7457 208.696 97.8513 208.729 97.9495C208.762 98.0477 208.823 98.1341 208.904 98.198C220.418 103.598 218.304 113.748 220.504 120.46C220.726 121.13 221.84 121.26 221.998 120.46C223.636 112.2 219.526 97.486 209.156 97.26Z" fill="#76B703"/>
<path d="M220.312 143.872C223.804 139.404 223.674 132.822 222.422 127.572C222.182 126.572 220.784 127.044 220.918 127.99C221.682 133.39 219.9 137.828 218.76 142.97C218.58 143.788 219.704 144.648 220.312 143.872Z" fill="#76B703"/>
<path d="M195.87 93.044C196.055 92.9878 196.216 92.8738 196.331 92.7188C196.446 92.5637 196.508 92.3759 196.508 92.183C196.508 91.99 196.446 91.8022 196.331 91.6472C196.216 91.4922 196.055 91.3782 195.87 91.322C192.5 90.394 177.83 90.634 174.07 90.642C173.707 90.6451 173.36 90.7907 173.103 91.0473C172.847 91.3039 172.701 91.6511 172.698 92.014C172.645 98.4778 172.931 104.94 173.554 111.374C173.569 111.514 173.635 111.644 173.739 111.739C173.844 111.833 173.98 111.886 174.121 111.886C174.262 111.886 174.398 111.833 174.503 111.739C174.608 111.644 174.674 111.514 174.688 111.374C175.276 105.374 175.432 99.412 175.442 93.402C178.742 93.4 192.472 93.856 195.87 93.044Z" fill="#76B703"/>
<path d="M239.038 108.852C239.317 103.294 239.269 97.7245 238.896 92.172C238.89 91.8087 238.742 91.462 238.485 91.2052C238.228 90.9484 237.881 90.8017 237.518 90.796C231.015 90.8534 224.521 91.2707 218.064 92.046C217.89 92.046 217.724 92.1149 217.601 92.2376C217.479 92.3602 217.41 92.5266 217.41 92.7C217.41 92.8735 217.479 93.0398 217.601 93.1625C217.724 93.2851 217.89 93.354 218.064 93.354C224.116 93.754 230.132 93.714 236.188 93.576C236.187 98.7667 236.54 103.951 237.244 109.094C237.426 110.176 238.95 109.8 239.038 108.852Z" fill="#76B703"/>
<path d="M218.2 159.56C224.164 160.088 230.158 159.894 236.142 159.824C236.505 159.822 236.853 159.677 237.11 159.42C237.367 159.163 237.512 158.815 237.514 158.452C237.686 153.176 237.319 147.897 236.42 142.696C236.262 141.968 235.006 141.914 234.886 142.696C234.368 147.48 234.313 152.302 234.722 157.096C229.208 157.154 223.688 157.18 218.206 157.786C217.978 157.796 217.763 157.893 217.604 158.058C217.446 158.223 217.358 158.442 217.357 158.67C217.356 158.898 217.443 159.118 217.6 159.284C217.757 159.449 217.972 159.548 218.2 159.56Z" fill="#76B703"/>
<path d="M176.158 155.46C175.558 150.404 175.27 145.322 174.864 140.248C174.85 140.056 174.764 139.875 174.622 139.744C174.481 139.612 174.295 139.539 174.102 139.539C173.909 139.539 173.723 139.612 173.582 139.744C173.44 139.875 173.354 140.056 173.34 140.248C172.93 145.773 173.029 151.325 173.636 156.832C173.651 157.183 173.797 157.516 174.046 157.765C174.295 158.013 174.629 158.158 174.98 158.172C177.007 158.535 179.097 158.283 180.98 157.448C181.14 157.348 181.267 157.205 181.348 157.034C181.428 156.864 181.458 156.674 181.434 156.487C181.409 156.301 181.332 156.125 181.21 155.981C181.088 155.837 180.928 155.731 180.748 155.676C179.241 155.347 177.689 155.274 176.158 155.46Z" fill="#76B703"/>
<path d="M208.788 301.704C196.704 299.492 182.346 300.57 171.298 306.622C179.972 293.022 187.816 278.822 195.498 264.658C203.406 250.086 211.522 235.358 217.428 219.858C219.864 213.458 223.814 204.924 220.828 198.124C218.318 192.392 211.674 191.48 206.544 194.202C201.574 196.842 197.966 202.018 194.744 206.514C187.882 216.552 181.582 226.964 175.876 237.702C173.638 230.58 164.462 226.754 158.99 231.93C156.278 224.908 148.168 220.46 141.54 224.59C140.986 221.045 139.248 217.792 136.608 215.362C133.116 212.552 128.286 212.816 124.276 214.248C116.848 216.904 105.988 226.156 100.458 231.662C86.4835 245.538 76.3563 262.809 71.0701 281.78C68.5141 291.146 67.1281 301.646 69.9301 311.086C67.4019 314.256 65.1091 317.607 63.0701 321.112C60.4314 319.899 57.7648 318.761 55.0701 317.698C43.7201 333.228 32.6081 348.938 22.1341 365.072C17.2841 372.54 11.8281 380.97 22.3761 386.526C32.2961 391.75 123.006 390.798 126.932 385.408C127.665 384.393 128.148 383.218 128.34 381.981C128.533 380.743 128.43 379.478 128.04 378.288C126.966 374.938 117.656 363.034 115.176 360.19C117.265 357.612 119.037 354.792 120.452 351.79C120.728 351.098 119.804 350.482 119.222 350.846C116.456 352.576 113.308 358.232 113.308 358.232C113.308 358.232 83.4001 330.8 64.7541 321.908C66.9705 319.42 69.0369 316.802 70.9421 314.068C71.3021 314.95 71.6961 315.82 72.1421 316.668C72.2591 316.859 72.4408 317.002 72.6542 317.071C72.8677 317.14 73.0987 317.13 73.3056 317.044C73.5124 316.957 73.6812 316.799 73.7815 316.598C73.8818 316.397 73.9068 316.167 73.8521 315.95C67.7321 298.006 73.2521 278.642 81.5461 262.288C89.3708 246.806 100.703 233.365 114.64 223.036C118.788 219.97 123.504 216.448 128.802 215.934C135.134 215.32 138.918 221.284 139.06 227.134C139.069 227.403 139.155 227.664 139.308 227.886C139.461 228.108 139.675 228.28 139.924 228.383C140.173 228.486 140.446 228.515 140.711 228.467C140.976 228.418 141.222 228.294 141.418 228.11C146.628 223.166 155.434 225.96 157.058 235.224C157.138 235.479 157.289 235.706 157.494 235.878C157.699 236.05 157.949 236.16 158.215 236.194C158.48 236.229 158.75 236.186 158.992 236.072C159.234 235.958 159.438 235.777 159.58 235.55C160.42 234.129 161.744 233.059 163.31 232.536C164.876 232.014 166.577 232.074 168.102 232.706C173.02 234.706 173.56 240.078 174.302 240.726C171.828 245.514 169.617 250.434 167.68 255.464C167.368 256.282 168.7 256.836 169.094 256.064C174.864 244.73 196.568 202.93 207.566 196.778C211 194.856 215.736 194.666 217.966 198.46C220.032 201.98 218.966 206.248 217.898 209.91C210.098 236.686 182.756 281.426 167.286 308.002C167 308.492 166.686 311.18 170.124 309.432C180.894 303.942 206.142 300.38 217.196 307.612C219.834 309.338 222.418 313.692 218.378 314.47C211.936 315.714 189.178 321.702 178.604 325.446C168.274 329.106 159.218 334.564 149.752 339.962C139.362 345.888 126.074 351.052 114.8 344.278C114.484 344.092 114.108 344.04 113.754 344.132C113.399 344.223 113.096 344.452 112.91 344.768C112.724 345.084 112.672 345.46 112.764 345.814C112.856 346.169 113.084 346.472 113.4 346.658C123.514 352.72 135.758 350.138 145.762 345.222C151.536 342.386 156.724 338.49 162.498 335.666C190.526 321.972 207.954 321.28 217.856 317.684C221.882 316.222 224.952 312.604 222.146 308.434C219.34 304.264 213.43 302.556 208.788 301.704Z" fill="#111827"/>
<path d="M269.98 102.578C273.262 115.378 271.18 127.79 277.446 139.884C281.472 147.66 287.752 154.13 289.884 162.842C291.751 171.48 290.484 180.5 286.31 188.29C286.181 188.511 286.144 188.775 286.209 189.023C286.274 189.271 286.435 189.483 286.656 189.612C286.877 189.741 287.141 189.778 287.389 189.713C287.637 189.648 287.849 189.487 287.978 189.266C288.798 188.129 289.528 186.929 290.162 185.678C291.562 187.42 299.488 194.906 301.772 197.124C302.43 197.762 303.36 196.802 302.772 196.124C300.68 193.692 293.274 184.764 291.28 183.198C293.425 177.547 294.079 171.439 293.178 165.462C291.778 156.062 286.108 149.108 281.364 141.216C271.392 124.616 278.234 101.932 266.438 89.454C265.438 88.402 263.568 89.788 264.406 91.036C266.928 94.5258 268.815 98.4329 269.98 102.578Z" fill="#111827"/>
<path d="M264.74 241.092C265.968 241.892 267.498 239.98 266.324 239.036C263.34 236.656 260.206 234.47 256.942 232.492C259.477 231.775 261.786 230.42 263.648 228.556C264.316 227.732 263.718 226.3 262.534 226.652C259.534 227.542 256.92 229.624 253.87 230.598C249.028 232.062 243.943 232.547 238.911 232.025C233.88 231.503 229.003 229.984 224.564 227.558C224.038 227.278 223.324 228.038 223.868 228.466C229.533 232.781 236.482 235.07 243.602 234.966C247.317 234.68 251.004 234.107 254.63 233.252C254.63 233.252 261.16 238.782 264.74 241.092Z" fill="#111827"/>
<path d="M377.89 249C369.258 233.424 356.514 219.29 343.69 207.072C341.748 205.222 323.642 186.538 322.716 187.338C298.035 208.69 276.49 233.417 258.716 260.788C254.446 267.366 254.856 270.168 259.328 275.774C272.187 291.891 286.285 306.98 301.492 320.904C312.242 330.75 328.314 347.222 344.058 345.652C354.226 344.638 363.222 337.954 368.98 329.516C374.688 321.152 377.896 311.078 380.204 301.18C384.024 284.814 386.36 264.284 377.89 249ZM293.2 278.32C290.472 278.882 281.2 278.356 279.908 270.156C279.693 268.062 280.151 265.953 281.215 264.137C282.28 262.321 283.896 260.891 285.828 260.056C289.778 258.206 293.74 259.342 297.228 262.11C300.334 264.6 304.726 275.936 293.2 278.32Z" fill="#111827"/>
</svg>
